<svg xmlns="http://www.w3.org/2000/svg" xmlns:xlink="http://www.w3.org/1999/xlink" width="1400" zoomAndPan="magnify" viewBox="0 0 1050 525.000007" height="700" preserveAspectRatio="xMidYMid meet" version="1.0"><defs><g/><clipPath id="0ab17f0991"><rect x="0" width="947" y="0" height="418"/></clipPath></defs><g transform="matrix(1, 0, 0, 1, 54, 53)"><g clip-path="url(#0ab17f0991)"><g fill="#8a0005" fill-opacity="1"><g transform="translate(2.663215, 313.248751)"><g><path d="M 96.140625 2.90625 C 67.410156 2.90625 45.863281 -5.109375 31.5 -21.140625 C 16.851562 -36.878906 9.53125 -58.976562 9.53125 -87.4375 C 9.53125 -100.144531 11.1875 -112.023438 14.5 -123.078125 C 17.820312 -133.859375 23.070312 -143.390625 30.25 -151.671875 C 37.15625 -159.691406 46.132812 -166.046875 57.1875 -170.734375 C 68.238281 -175.160156 81.363281 -177.375 96.5625 -177.375 C 101.257812 -177.375 106.234375 -176.957031 111.484375 -176.125 C 116.453125 -175.019531 121.425781 -173.503906 126.40625 -171.578125 C 131.09375 -169.359375 135.507812 -166.734375 139.65625 -163.703125 C 143.800781 -160.660156 146.976562 -157.066406 149.1875 -152.921875 L 149.1875 -248.65625 L 190.640625 -248.65625 L 190.640625 0 L 149.1875 0 L 149.1875 -19.890625 C 146.707031 -16.023438 143.394531 -12.710938 139.25 -9.953125 C 135.101562 -6.910156 130.539062 -4.421875 125.5625 -2.484375 C 120.59375 -0.546875 115.625 0.832031 110.65625 1.65625 C 105.40625 2.488281 100.566406 2.90625 96.140625 2.90625 Z M 50.96875 -85.78125 C 50.96875 -82.1875 51.519531 -77.90625 52.625 -72.9375 C 53.738281 -67.6875 56.085938 -62.710938 59.671875 -58.015625 C 63.265625 -53.316406 68.238281 -49.3125 74.59375 -46 C 80.945312 -42.40625 89.515625 -40.609375 100.296875 -40.609375 C 110.785156 -40.609375 119.347656 -42.40625 125.984375 -46 C 132.335938 -49.3125 137.3125 -53.316406 140.90625 -58.015625 C 144.21875 -62.710938 146.425781 -67.6875 147.53125 -72.9375 C 148.632812 -77.90625 149.1875 -82.1875 149.1875 -85.78125 C 149.1875 -101.8125 144.628906 -113.832031 135.515625 -121.84375 C 126.398438 -129.570312 114.101562 -133.4375 98.625 -133.4375 C 88.40625 -133.4375 80.117188 -131.644531 73.765625 -128.0625 C 67.410156 -124.46875 62.578125 -120.179688 59.265625 -115.203125 C 55.953125 -109.953125 53.738281 -104.707031 52.625 -99.46875 C 51.519531 -93.9375 50.96875 -89.375 50.96875 -85.78125 Z M 50.96875 -85.78125 "/></g></g></g><g fill="#8a0005" fill-opacity="1"><g transform="translate(209.843689, 313.248751)"><g><path d="M 54.296875 -92 C 54.296875 -85.644531 54.847656 -79.429688 55.953125 -73.359375 C 57.054688 -67.273438 58.988281 -62.160156 61.75 -58.015625 C 64.789062 -52.492188 69.210938 -48.210938 75.015625 -45.171875 C 80.535156 -42.128906 87.71875 -40.609375 96.5625 -40.609375 C 110.65625 -40.609375 121.984375 -45.03125 130.546875 -53.875 C 139.109375 -62.71875 143.390625 -74.179688 143.390625 -88.265625 L 143.390625 -174.0625 L 184.828125 -174.0625 L 184.828125 0 L 143.390625 0 L 143.390625 -21.546875 C 140.898438 -17.128906 137.445312 -13.398438 133.03125 -10.359375 C 128.613281 -7.046875 123.914062 -4.421875 118.9375 -2.484375 C 113.6875 -0.546875 108.300781 0.832031 102.78125 1.65625 C 97.25 2.488281 92.132812 2.90625 87.4375 2.90625 C 73.351562 2.90625 61.613281 0.554688 52.21875 -4.140625 C 42.550781 -8.566406 34.816406 -14.921875 29.015625 -23.203125 C 23.210938 -31.210938 19.066406 -40.742188 16.578125 -51.796875 C 14.085938 -62.847656 12.84375 -74.726562 12.84375 -87.4375 L 12.84375 -174.0625 L 54.296875 -174.0625 Z M 26.515625 -222.953125 C 26.515625 -228.753906 28.453125 -234.28125 32.328125 -239.53125 C 35.921875 -244.507812 42.550781 -247 52.21875 -247 C 61.882812 -247 68.789062 -244.507812 72.9375 -239.53125 C 76.800781 -234.28125 78.734375 -228.753906 78.734375 -222.953125 C 78.734375 -216.878906 76.800781 -211.351562 72.9375 -206.375 C 68.789062 -201.40625 61.882812 -198.921875 52.21875 -198.921875 C 42.550781 -198.921875 35.921875 -201.40625 32.328125 -206.375 C 28.453125 -211.351562 26.515625 -216.878906 26.515625 -222.953125 Z M 174.0625 -222.953125 C 174.0625 -216.878906 172.125 -211.351562 168.25 -206.375 C 164.101562 -201.40625 157.195312 -198.921875 147.53125 -198.921875 C 137.863281 -198.921875 131.234375 -201.40625 127.640625 -206.375 C 123.773438 -211.351562 121.84375 -216.878906 121.84375 -222.953125 C 121.84375 -228.753906 123.773438 -234.28125 127.640625 -239.53125 C 131.234375 -244.507812 137.863281 -247 147.53125 -247 C 157.195312 -247 164.101562 -244.507812 168.25 -239.53125 C 172.125 -234.28125 174.0625 -228.753906 174.0625 -222.953125 Z M 174.0625 -222.953125 "/></g></g></g><g fill="#8a0005" fill-opacity="1"><g transform="translate(406.665058, 313.248751)"><g><path d="M 16.578125 74.1875 L 16.578125 -174.0625 L 58.015625 -174.0625 L 58.015625 -152.921875 C 60.503906 -157.066406 63.957031 -160.660156 68.375 -163.703125 C 72.519531 -166.734375 77.21875 -169.359375 82.46875 -171.578125 C 87.4375 -173.503906 92.6875 -175.019531 98.21875 -176.125 C 103.46875 -176.957031 108.300781 -177.375 112.71875 -177.375 C 141.175781 -177.375 162.453125 -169.363281 176.546875 -153.34375 C 190.628906 -137.3125 197.671875 -115.34375 197.671875 -87.4375 C 197.671875 -73.90625 195.878906 -61.613281 192.296875 -50.5625 C 188.421875 -39.226562 182.894531 -29.695312 175.71875 -21.96875 C 168.53125 -13.957031 159.550781 -7.878906 148.78125 -3.734375 C 138 0.691406 125.703125 2.90625 111.890625 2.90625 C 107.472656 2.90625 102.640625 2.488281 97.390625 1.65625 C 92.140625 0.832031 87.03125 -0.546875 82.0625 -2.484375 C 77.082031 -4.421875 72.519531 -6.910156 68.375 -9.953125 C 63.957031 -12.710938 60.503906 -16.023438 58.015625 -19.890625 L 58.015625 74.1875 Z M 58.015625 -85.78125 C 58.015625 -82.1875 58.566406 -77.90625 59.671875 -72.9375 C 60.773438 -67.6875 63.125 -62.710938 66.71875 -58.015625 C 70.3125 -53.316406 75.285156 -49.3125 81.640625 -46 C 87.992188 -42.40625 96.554688 -40.609375 107.328125 -40.609375 C 117.828125 -40.609375 126.394531 -42.40625 133.03125 -46 C 139.382812 -49.3125 144.359375 -53.316406 147.953125 -58.015625 C 151.265625 -62.710938 153.472656 -67.6875 154.578125 -72.9375 C 155.679688 -77.90625 156.234375 -82.1875 156.234375 -85.78125 C 156.234375 -89.375 155.820312 -93.9375 155 -99.46875 C 153.894531 -104.707031 151.679688 -109.953125 148.359375 -115.203125 C 144.765625 -120.179688 139.789062 -124.46875 133.4375 -128.0625 C 126.8125 -131.644531 118.109375 -133.4375 107.328125 -133.4375 C 91.859375 -133.4375 79.84375 -129.429688 71.28125 -121.421875 C 62.4375 -113.140625 58.015625 -101.257812 58.015625 -85.78125 Z M 58.015625 -85.78125 "/></g></g></g><g fill="#8a0005" fill-opacity="1"><g transform="translate(610.530645, 313.248751)"><g><path d="M 72.53125 2.90625 C 60.925781 2.90625 51.53125 1.382812 44.34375 -1.65625 C 36.882812 -4.695312 31.082031 -9.117188 26.9375 -14.921875 C 22.789062 -20.441406 20.03125 -27.347656 18.65625 -35.640625 C 17.269531 -43.929688 16.578125 -53.328125 16.578125 -63.828125 L 16.578125 -248.65625 L 58.015625 -248.65625 L 58.015625 -71.28125 C 58.015625 -63.269531 59.535156 -57.050781 62.578125 -52.625 C 64.785156 -49.863281 67.269531 -48.207031 70.03125 -47.65625 C 72.800781 -46.832031 75.84375 -46.421875 79.15625 -46.421875 C 83.300781 -46.421875 87.582031 -46.972656 92 -48.078125 C 96.144531 -49.179688 100.015625 -50.421875 103.609375 -51.796875 L 116.03125 -7.875 C 102.769531 -0.6875 88.269531 2.90625 72.53125 2.90625 Z M 72.53125 2.90625 "/></g></g></g><g fill="#8a0005" fill-opacity="1"><g transform="translate(734.010199, 313.248751)"><g><path d="M 149.609375 -174.0625 L 191.046875 -174.0625 L 191.046875 -6.625 C 191.046875 23.207031 182.757812 45.582031 166.1875 60.5 C 149.601562 75.695312 126.671875 83.296875 97.390625 83.296875 C 82.742188 83.296875 68.515625 81.085938 54.703125 76.671875 C 40.890625 72.523438 27.90625 66.582031 15.75 58.84375 L 32.328125 16.578125 C 41.171875 23.484375 51.390625 28.867188 62.984375 32.734375 C 74.585938 36.878906 86.054688 38.953125 97.390625 38.953125 C 113.691406 38.953125 126.539062 34.804688 135.9375 26.515625 C 145.050781 18.503906 149.609375 6.210938 149.609375 -10.359375 L 149.609375 -21.140625 C 147.117188 -16.992188 143.664062 -13.398438 139.25 -10.359375 C 134.820312 -7.316406 130.125 -4.832031 125.15625 -2.90625 C 120.1875 -0.96875 115.078125 0.414062 109.828125 1.25 C 104.296875 2.351562 99.179688 2.90625 94.484375 2.90625 C 66.304688 2.90625 45.722656 -5.242188 32.734375 -21.546875 C 19.472656 -37.847656 12.84375 -59.675781 12.84375 -87.03125 L 12.84375 -174.0625 L 55.53125 -174.0625 L 55.53125 -91.59375 C 55.53125 -88 55.945312 -83.4375 56.78125 -77.90625 C 57.332031 -72.101562 59.125 -66.578125 62.15625 -61.328125 C 64.925781 -55.804688 69.347656 -51.113281 75.421875 -47.25 C 81.503906 -43.101562 89.796875 -40.890625 100.296875 -40.609375 C 115.765625 -41.160156 127.921875 -45.441406 136.765625 -53.453125 C 145.328125 -61.472656 149.609375 -73.492188 149.609375 -89.515625 Z M 149.609375 -174.0625 "/></g></g></g></g></g></svg>