<svg xmlns="http://www.w3.org/2000/svg" xmlns:xlink="http://www.w3.org/1999/xlink" width="1080" zoomAndPan="magnify" viewBox="0 0 810 809.999993" height="1080" preserveAspectRatio="xMaxYMid meet" version="1.0"><defs><clipPath id="f25c167a5d"><path d="M 81 15.644531 L 686 15.644531 L 686 708 L 81 708 Z M 81 15.644531 " clip-rule="nonzero"/></clipPath><clipPath id="eefc622b1f"><path d="M 478 338 L 726 338 L 726 794.144531 L 478 794.144531 Z M 478 338 " clip-rule="nonzero"/></clipPath></defs><g clip-path="url(#f25c167a5d)"><path fill="#8a0005" d="M 610.660156 342.625 C 610.605469 347.597656 606.417969 351.507812 601.445312 351.226562 L 600.328125 351.171875 C 595.972656 350.921875 592.5625 347.289062 592.621094 342.933594 L 594.128906 209.382812 C 594.128906 198.789062 565.046875 179.144531 557.097656 173.609375 C 513.054688 142.945312 484.4375 129.007812 466.164062 92.980469 C 465.9375 92.535156 465.355469 92.449219 464.992188 92.785156 C 455.574219 101.492188 442.316406 112.894531 430.027344 119.820312 C 409.445312 131.414062 389.226562 140.351562 369.394531 146.574219 C 302.742188 167.488281 233.785156 175.628906 191.96875 192.011719 C 191.386719 192.242188 190.980469 192.820312 190.964844 193.464844 C 189.214844 259.1875 191.042969 319.835938 193.144531 375.359375 C 193.839844 393.761719 198.785156 411.773438 207.945312 429.398438 C 231.035156 473.828125 252.898438 492.332031 283.824219 524.269531 C 289.195312 529.816406 302.058594 540.75 322.417969 557.054688 C 355.425781 583.484375 388.921875 602.449219 430.722656 579.453125 C 448.683594 569.574219 466.964844 552.414062 483.003906 537.980469 C 486.566406 534.777344 492.175781 535.753906 494.425781 539.878906 C 496.882812 543.84375 496.328125 548.984375 493.058594 552.308594 C 484.207031 561.304688 471.46875 571.996094 454.796875 584.367188 C 424.019531 607.210938 391.535156 612.339844 357.386719 599.730469 C 336.25 591.925781 310.261719 570.21875 281.140625 545.6875 C 280.414062 545.078125 279.324219 545.6875 279.4375 546.609375 C 284.046875 583.519531 280.605469 618.503906 268.660156 651.5625 C 262.441406 668.769531 250.242188 686.542969 232.101562 704.960938 C 229.058594 708.050781 223.703125 708.898438 219.421875 704.597656 C 216.0625 701.226562 216.175781 695.738281 219.644531 692.476562 C 264.992188 649.820312 269.175781 588.847656 259.972656 530.132812 C 259.382812 526.363281 257.625 522.875 254.972656 520.136719 C 224.175781 488.296875 177.5 440.34375 175.410156 370.722656 C 173.832031 318.246094 173.328125 262.222656 173.453125 202.625 C 173.453125 201.957031 172.730469 201.511719 172.140625 201.84375 C 107.816406 238.03125 84.167969 306.933594 108.160156 376.839844 C 130.761719 442.703125 166.355469 467.28125 204.425781 530.441406 C 225.09375 564.734375 230.488281 604.640625 206.4375 640.085938 C 203.570312 644.308594 197.890625 645.53125 193.644531 642.710938 C 189.765625 640.492188 188.292969 634.773438 191.328125 630.644531 C 205.5625 611.265625 208.703125 589.8125 200.683594 566.273438 C 187.203125 526.707031 172.332031 514.476562 129.214844 455.621094 C 91.105469 403.605469 70.398438 339.636719 87.828125 277.082031 C 90.199219 268.5625 95.253906 258.542969 98.71875 249.851562 C 102.753906 239.730469 49.714844 168.871094 110.867188 49.441406 C 113.082031 45.117188 118.074219 42.964844 122.765625 44.332031 L 124.328125 44.777344 C 128.574219 46.035156 130.554688 50.894531 128.378906 54.75 C 99.316406 106.210938 91.980469 160.070312 106.121094 216.339844 C 106.316406 217.121094 107.453125 217.0625 107.542969 216.253906 C 115.183594 148.320312 177.640625 121.429688 236.988281 109.765625 C 317.46875 93.949219 369.5 89.550781 406.035156 44.972656 C 408.851562 41.535156 413.855469 40.867188 417.457031 43.4375 C 421.8125 46.546875 421.910156 51.453125 419.578125 54.609375 C 377.996094 110.886719 297.480469 114.570312 235.257812 128.253906 C 185.851562 139.117188 137.621094 158.15625 124.71875 212.679688 C 124.574219 213.292969 125.253906 213.804688 125.808594 213.488281 C 126.679688 212.996094 131.28125 209.210938 139.578125 202.179688 C 167.101562 178.847656 202.945312 168.21875 238.691406 159.785156 C 329.960938 138.25 451.0625 127.65625 489.734375 21.234375 C 491.269531 17.003906 495.980469 14.445312 500.933594 16.207031 C 505.292969 17.761719 507.703125 22.382812 506.324219 26.765625 C 500.917969 43.953125 492.539062 59.847656 481.355469 74.464844 C 476.179688 81.234375 492.75 108.382812 520.875 127.472656 C 579.632812 167.351562 626.03125 196.742188 645.851562 265.460938 C 646.042969 266.132812 646.964844 266.1875 647.21875 265.546875 C 676.011719 192.414062 677.242188 124.617188 638.925781 55.25 C 636.6875 51.203125 638.484375 46.109375 642.777344 44.359375 C 648.222656 42.144531 653.230469 44.460938 655.457031 48.519531 C 725.128906 175.53125 652.742188 285.71875 653.585938 298.753906 C 655.148438 322.804688 654.085938 346.621094 648.140625 369.464844 C 645.792969 378.484375 633.824219 378.707031 631.078125 370.21875 C 630.714844 369.101562 630.679688 367.871094 630.964844 366.757812 C 642.707031 320.441406 636.71875 275.386719 612.449219 231.558594 C 611.648438 230.113281 611.941406 227.71875 610.660156 342.625 Z M 610.660156 342.625 " fill-opacity="1" fill-rule="nonzero"/></g><path fill="#8a0005" d="M 345.542969 230.914062 C 351.214844 236.195312 345.207031 245.371094 338.898438 244.851562 C 337.585938 244.742188 334.347656 242.921875 329.179688 239.40625 C 272.878906 201.09375 228.574219 232.796875 221.097656 231.699219 C 214.820312 230.773438 210.984375 220.546875 217.664062 216.644531 C 255.609375 194.476562 313.382812 200.964844 345.542969 230.917969 Z M 345.542969 230.914062 " fill-opacity="1" fill-rule="nonzero"/><path fill="#8a0005" d="M 456.277344 239.238281 C 451.144531 242.738281 447.957031 244.550781 446.671875 244.65625 C 440.417969 245.179688 434.4375 236.082031 440.023438 230.859375 C 471.828125 201.132812 529.027344 194.621094 566.675781 216.476562 C 573.320312 220.335938 569.519531 230.472656 563.324219 231.390625 C 555.933594 232.484375 511.984375 201.269531 456.277344 239.238281 Z M 456.277344 239.238281 " fill-opacity="1" fill-rule="nonzero"/><path fill="#8a0005" d="M 244.894531 301.601562 C 239.957031 299.015625 232.277344 300.003906 221.992188 304.308594 C 217.835938 306.050781 213.167969 303.753906 211.828125 299.449219 C 210.355469 294.734375 212.625 290.03125 216.796875 288.195312 C 233.515625 280.835938 248.074219 281.804688 260.589844 291.183594 C 282.648438 307.722656 303.550781 310.890625 329.402344 295.289062 C 333.09375 293.0625 338.25 294.066406 340.65625 298.808594 C 342.675781 302.785156 341.300781 307.605469 337.5 309.867188 C 314.207031 323.746094 290.699219 325.546875 266.929688 315.339844 C 265.363281 314.671875 263.636719 314.519531 261.957031 314.894531 C 257.164062 315.96875 251.878906 318.054688 246.121094 321.234375 C 233.003906 328.480469 226.375 314.386719 237.519531 307.96875 C 242.714844 304.976562 245.339844 303.445312 245.339844 303.417969 C 245.785156 302.800781 245.570312 301.953125 244.894531 301.601562 Z M 244.894531 301.601562 " fill-opacity="1" fill-rule="nonzero"/><path fill="#8a0005" d="M 539.585938 303.585938 C 539.613281 303.613281 542.238281 305.148438 547.460938 308.191406 C 558.632812 314.699219 551.929688 328.832031 538.746094 321.511719 C 532.964844 318.304688 527.65625 316.167969 522.828125 315.0625 C 521.152344 314.675781 519.421875 314.835938 517.828125 315.507812 C 493.847656 325.65625 470.226562 323.753906 446.835938 309.726562 C 443.066406 307.464844 441.519531 302.546875 443.90625 298.195312 C 446.101562 294.183594 451.136719 292.726562 455.019531 295.09375 C 480.96875 310.910156 502.03125 307.785156 524.308594 291.210938 C 536.910156 281.835938 551.578125 280.914062 568.378906 288.363281 C 572.621094 290.242188 574.847656 295.003906 573.460938 299.394531 C 571.804688 304.640625 566.910156 306.171875 563.101562 304.5625 C 552.738281 300.179688 545.0625 299.261719 540.058594 301.769531 C 539.390625 302.105469 539.167969 302.96875 539.585938 303.585938 Z M 539.585938 303.585938 " fill-opacity="1" fill-rule="nonzero"/><g clip-path="url(#eefc622b1f)"><path fill="#8a0005" d="M 539.472656 492.933594 C 537.796875 492.433594 536.042969 493.519531 535.761719 495.25 C 531.894531 518.828125 538.59375 539.691406 513 612.046875 C 511.398438 616.566406 508.972656 625.363281 505.710938 638.464844 C 499.054688 665.1875 503.917969 693.121094 511.714844 720.992188 C 517.160156 740.457031 517.617188 761.398438 513.140625 783.828125 C 512.214844 788.464844 507.832031 791.589844 503.140625 790.976562 C 498.527344 790.648438 495.078125 786.269531 495.992188 781.539062 C 499.648438 762.574219 499.730469 745.957031 496.1875 731.660156 C 486.710938 693.425781 479.972656 663.546875 490.183594 628.410156 C 510.609375 558.117188 509.539062 571.90625 514.953125 537.589844 C 515.09375 536.695312 514.761719 535.773438 514.089844 535.1875 C 461.898438 489.699219 474.839844 407.722656 500.234375 352.765625 C 502.46875 347.933594 507.328125 339.800781 513.109375 338.632812 C 523.832031 336.46875 538.246094 341.398438 549.527344 345.363281 C 579.328125 355.835938 610.921875 370.503906 631.078125 394.992188 C 632.550781 396.785156 634.929688 397.5 637.136719 396.808594 C 647.410156 393.578125 654.703125 396.007812 659.5625 403.703125 C 659.671875 403.875 664.527344 413.132812 674.058594 431.519531 C 677.339844 437.855469 684.742188 439.269531 716.367188 480.925781 C 723.476562 490.289062 726.699219 500.949219 726.058594 512.902344 C 723.445312 561.800781 721.355469 594.867188 719.804688 612.101562 C 718.59375 625.5625 713.90625 638.128906 705.785156 649.804688 C 677.984375 689.757812 661.519531 712.699219 656.351562 718.589844 C 640.414062 736.75 629.082031 759.871094 622.390625 787.933594 C 621.332031 792.375 616.917969 795.128906 612.449219 794.160156 C 607.410156 793.070312 604.949219 788.625 605.773438 784.441406 C 610.855469 758.71875 619.789062 737.605469 632.585938 721.101562 C 633.976562 719.304688 677.621094 661.402344 694.863281 633.269531 C 700.871094 623.46875 702.761719 613.46875 700.503906 603.332031 C 675.613281 491.453125 691.066406 502.011719 650.402344 422.414062 C 648.578125 418.84375 647.101562 416.414062 645.988281 415.15625 C 644.027344 412.929688 640.4375 413.371094 639.121094 416.019531 C 634.320312 425.683594 636.777344 444.589844 641.242188 451.070312 C 655.644531 471.972656 669.289062 487.9375 670.957031 511.308594 C 672.640625 534.855469 673.917969 559.066406 674.839844 583.921875 C 675.007812 588.4375 671.398438 592.058594 666.878906 592.160156 C 662.519531 592.257812 658.832031 589.03125 658.53125 584.675781 C 656.527344 556.050781 655.398438 535.832031 655.09375 524.015625 C 654.667969 507.429688 649.609375 492.464844 639.929688 479.109375 C 627.207031 461.554688 616.292969 446.140625 607.085938 432.945312 C 604.550781 429.308594 601.601562 425.917969 598.175781 422.777344 C 597.289062 421.964844 595.835938 422.390625 595.523438 423.5625 C 592.828125 433.679688 593.90625 443.554688 598.902344 453.21875 C 604.632812 464.304688 611.46875 476.234375 619.429688 488.996094 C 623.703125 495.839844 628.0625 508.375 628.285156 517.789062 C 629.019531 549.261719 628.609375 577.871094 612.167969 603.75 C 603.1875 617.886719 591.144531 624.042969 574.996094 619.304688 C 558.019531 614.324219 553.695312 595.09375 554.804688 579.339844 C 556.464844 555.769531 563.113281 499.96875 539.472656 492.933594 Z M 620.128906 409.121094 C 595.152344 380.890625 556.996094 362.988281 520.957031 355.78125 C 519.953125 355.578125 518.917969 355.949219 518.277344 356.757812 C 515.398438 360.386719 511.683594 368.851562 507.191406 382.117188 C 492.714844 424.84375 488.125 474.058594 515.148438 512.371094 C 515.679688 513.125 516.875 512.707031 516.824219 511.785156 C 516.335938 503.074219 516.941406 483.640625 524.757812 478.691406 C 528.808594 476.125 534 475.476562 540.394531 476.765625 C 552.460938 479.191406 561.144531 485.898438 566.425781 496.84375 C 571.867188 508.128906 574.382812 519.914062 573.824219 532.199219 C 573.773438 533.316406 574.71875 534.238281 575.835938 534.15625 C 589.324219 533.148438 600.789062 529.085938 610.1875 521.921875 C 611.136719 521.199219 611.609375 519.996094 611.417969 518.824219 C 607.847656 497.320312 588.492188 471.035156 583.320312 459.53125 C 576.488281 444.335938 572.222656 422.628906 585.082031 409.820312 C 599.8125 395.144531 610.457031 409.585938 619.011719 420.964844 C 619.769531 421.96875 621.394531 421.496094 621.5 420.238281 C 621.945312 414.734375 622.632812 411.949219 620.128906 409.121094 Z M 695.5625 485.03125 L 706.453125 539.878906 C 706.578125 540.445312 707.390625 540.433594 707.460938 539.851562 C 708.476562 531.078125 711.203125 508.351562 706.230469 498.714844 C 703.046875 492.542969 699.746094 487.828125 696.289062 484.640625 C 695.984375 484.359375 695.480469 484.613281 695.5625 485.03125 Z M 609.265625 542.421875 C 598.832031 547.496094 587.535156 550.609375 575.25 551.554688 C 574.1875 551.636719 573.351562 552.449219 573.265625 553.507812 C 572.371094 564.570312 571.78125 574.089844 571.617188 582.078125 C 571.414062 592.105469 573.769531 604.769531 586.226562 603.359375 C 596.695312 602.175781 605.0625 582.660156 607.003906 574.148438 C 609.417969 563.558594 610.5625 553.230469 610.523438 543.203125 C 610.519531 542.5625 609.847656 542.136719 609.265625 542.421875 Z M 609.265625 542.421875 " fill-opacity="1" fill-rule="nonzero"/></g><path fill="#8a0005" d="M 392.40625 423.03125 C 382.660156 423.074219 371.113281 418.175781 362.945312 412.640625 C 359.972656 410.628906 358.777344 406.605469 360.738281 402.976562 C 362.476562 399.757812 366.460938 398.515625 369.730469 400.242188 C 388.910156 410.371094 395.664062 410.445312 414.945312 400.046875 C 418.15625 398.3125 422.179688 399.503906 423.9375 402.726562 C 425.953125 406.425781 424.71875 410.402344 421.816406 412.417969 C 413.730469 418.023438 402.179688 422.988281 392.40625 423.03125 Z M 392.40625 423.03125 " fill-opacity="1" fill-rule="nonzero"/><path fill="#8a0005" d="M 326.554688 488.660156 C 321.835938 481.929688 322.917969 476.449219 329.847656 472.183594 C 342.351562 464.488281 352.027344 458.808594 358.867188 455.121094 C 368.894531 449.707031 379.5625 449.78125 390.816406 455.398438 C 391.125 455.550781 393.273438 455.550781 393.582031 455.398438 C 404.855469 449.773438 415.507812 449.695312 425.558594 455.121094 C 432.375 458.800781 442.054688 464.488281 454.574219 472.183594 C 461.496094 476.4375 462.589844 481.929688 457.871094 488.660156 C 424.78125 535.847656 359.628906 535.855469 326.554688 488.660156 Z M 440.890625 486.035156 C 441.394531 485.535156 441.34375 484.714844 440.777344 484.304688 C 434.492188 479.714844 414.644531 464.425781 407.460938 467.492188 C 403.492188 469.1875 397.460938 472.433594 392.183594 472.378906 C 386.90625 472.324219 380.921875 469.011719 376.992188 467.238281 C 369.851562 464.023438 349.1875 479.339844 343.394531 483.492188 C 342.828125 483.898438 342.753906 484.722656 343.253906 485.226562 C 373.847656 515.890625 410.050781 516.453125 440.890625 486.035156 Z M 440.890625 486.035156 " fill-opacity="1" fill-rule="nonzero"/></svg>