<svg xmlns="http://www.w3.org/2000/svg" xmlns:xlink="http://www.w3.org/1999/xlink" width="1080" zoomAndPan="magnify" viewBox="0 0 810 809.999993" height="1080" preserveAspectRatio="xMaxYMid meet" version="1.0"><defs><clipPath id="3704a3325d"><path d="M 405 145 L 658.039062 145 L 658.039062 798 L 405 798 Z M 405 145 " clip-rule="nonzero"/></clipPath><clipPath id="6acdd467f1"><path d="M 151.789062 0 L 338 0 L 338 798 L 151.789062 798 Z M 151.789062 0 " clip-rule="nonzero"/></clipPath></defs><g clip-path="url(#3704a3325d)"><path fill="#8a0005" d="M 656.394531 193.160156 C 655.203125 191.949219 653.574219 191.265625 651.875 191.265625 L 611.5 191.265625 L 611.5 151.421875 C 611.5 147.929688 608.664062 145.09375 605.167969 145.09375 L 458.378906 145.09375 C 454.882812 145.09375 452.046875 147.929688 452.046875 151.421875 L 452.046875 191.265625 L 411.675781 191.265625 C 409.972656 191.265625 408.34375 191.949219 407.15625 193.160156 C 405.964844 194.375 405.3125 196.011719 405.34375 197.710938 L 409.230469 404.636719 C 409.230469 404.65625 409.230469 404.675781 409.230469 404.695312 L 412.042969 554.351562 C 415.648438 594.59375 422.441406 634.867188 432.222656 674.050781 C 440.953125 709.03125 452.21875 743.75 465.710938 777.230469 C 470.691406 789.59375 482.628906 797.578125 496.125 797.578125 L 567.429688 797.578125 C 580.925781 797.578125 592.863281 789.59375 597.84375 777.230469 C 611.328125 743.757812 622.597656 709.042969 631.332031 674.050781 C 641.117188 634.832031 647.910156 594.5625 651.539062 553.902344 L 658.203125 197.710938 C 658.234375 196.011719 657.582031 194.367188 656.394531 193.160156 Z M 639.914062 498.507812 C 603.363281 511.566406 568.132812 528.308594 535.152344 548.375 C 498.960938 570.398438 465.296875 596.542969 434.855469 626.097656 C 430.34375 602.003906 426.835938 577.753906 424.671875 553.667969 L 421.921875 406.847656 C 457.136719 368.597656 497.417969 335.511719 541.734375 308.539062 C 574.050781 288.871094 608.554688 272.5 644.378906 259.714844 Z M 464.707031 157.746094 L 598.839844 157.746094 L 598.839844 191.257812 L 464.707031 191.257812 Z M 645.421875 203.917969 L 644.632812 246.191406 C 606.378906 259.484375 569.5625 276.78125 535.152344 297.71875 C 493.535156 323.046875 455.421875 353.660156 421.582031 388.773438 L 418.117188 203.914062 L 645.421875 203.914062 Z M 619.039062 670.980469 C 610.449219 705.402344 599.359375 739.558594 586.089844 772.496094 C 583.050781 780.035156 575.722656 784.910156 567.421875 784.910156 L 496.121094 784.910156 C 487.8125 784.910156 480.484375 780.035156 477.445312 772.496094 C 464.175781 739.546875 453.085938 705.390625 444.496094 670.972656 C 442.023438 661.066406 439.761719 651.082031 437.679688 641.0625 C 468.988281 609.726562 503.960938 582.171875 541.734375 559.183594 C 572.621094 540.386719 605.535156 524.585938 639.664062 512.058594 L 638.894531 553.210938 C 635.351562 592.78125 628.667969 632.402344 619.039062 670.980469 Z M 619.039062 670.980469 " fill-opacity="1" fill-rule="nonzero"/></g><g clip-path="url(#6acdd467f1)"><path fill="#8a0005" d="M 331.597656 481.757812 L 311.238281 481.757812 L 311.238281 461.703125 C 311.238281 458.210938 308.402344 455.375 304.910156 455.375 L 264.535156 455.375 L 264.535156 276.75 L 284.894531 276.75 C 288.386719 276.75 291.222656 273.914062 291.222656 270.417969 C 291.222656 266.925781 288.386719 264.089844 284.894531 264.089844 L 264.535156 264.089844 L 264.535156 237.171875 L 291.566406 237.171875 C 295.058594 237.171875 297.894531 234.335938 297.894531 230.84375 C 297.894531 227.347656 295.058594 224.511719 291.566406 224.511719 L 264.535156 224.511719 L 264.535156 197.597656 L 298.238281 197.597656 C 301.730469 197.597656 304.566406 194.761719 304.566406 191.265625 C 304.566406 187.769531 301.730469 184.933594 298.238281 184.933594 L 264.535156 184.933594 L 264.535156 158.019531 L 311.582031 158.019531 C 315.078125 158.019531 317.914062 155.183594 317.914062 151.6875 C 317.914062 148.195312 315.078125 145.359375 311.582031 145.359375 L 264.535156 145.359375 L 264.535156 118.441406 L 298.238281 118.441406 C 301.730469 118.441406 304.566406 115.609375 304.566406 112.113281 C 304.566406 108.617188 301.730469 105.78125 298.238281 105.78125 L 264.535156 105.78125 L 264.535156 87.867188 C 264.535156 84.863281 264.453125 81.867188 264.351562 78.867188 L 291.566406 78.867188 C 295.058594 78.867188 297.894531 76.03125 297.894531 72.535156 C 297.894531 69.042969 295.058594 66.207031 291.566406 66.207031 L 263.632812 66.207031 C 262.878906 57.167969 261.613281 48.191406 259.921875 39.289062 L 284.894531 39.289062 C 288.386719 39.289062 291.222656 36.453125 291.222656 32.960938 C 291.222656 29.464844 288.386719 26.628906 284.894531 26.628906 L 257.210938 26.628906 C 255.414062 19.207031 253.320312 11.835938 250.863281 4.558594 C 249.988281 1.972656 247.578125 0.238281 244.863281 0.238281 C 242.144531 0.238281 239.726562 1.972656 238.859375 4.550781 C 236.40625 11.832031 234.308594 19.199219 232.511719 26.625 L 204.824219 26.625 C 201.328125 26.625 198.492188 29.460938 198.492188 32.953125 C 198.492188 36.449219 201.328125 39.285156 204.824219 39.285156 L 229.796875 39.285156 C 228.105469 48.183594 226.839844 57.167969 226.085938 66.199219 L 198.152344 66.199219 C 194.65625 66.199219 191.820312 69.035156 191.820312 72.53125 C 191.820312 76.023438 194.65625 78.859375 198.152344 78.859375 L 225.363281 78.859375 C 225.265625 81.855469 225.179688 84.855469 225.179688 87.863281 L 225.179688 105.777344 L 191.484375 105.777344 C 187.992188 105.777344 185.15625 108.613281 185.15625 112.105469 C 185.15625 115.601562 187.992188 118.4375 191.484375 118.4375 L 225.1875 118.4375 L 225.1875 145.351562 L 178.136719 145.351562 C 174.640625 145.351562 171.804688 148.1875 171.804688 151.683594 C 171.804688 155.175781 174.640625 158.011719 178.136719 158.011719 L 225.1875 158.011719 L 225.1875 184.929688 L 191.484375 184.929688 C 187.992188 184.929688 185.15625 187.765625 185.15625 191.257812 C 185.15625 194.753906 187.992188 197.589844 191.484375 197.589844 L 225.1875 197.589844 L 225.1875 224.503906 L 198.152344 224.503906 C 194.65625 224.503906 191.820312 227.339844 191.820312 230.835938 C 191.820312 234.328125 194.65625 237.164062 198.152344 237.164062 L 225.1875 237.164062 L 225.1875 264.082031 L 204.824219 264.082031 C 201.328125 264.082031 198.492188 266.917969 198.492188 270.410156 C 198.492188 273.90625 201.328125 276.742188 204.824219 276.742188 L 225.179688 276.742188 L 225.179688 455.367188 L 184.808594 455.367188 C 181.3125 455.367188 178.476562 458.203125 178.476562 461.695312 L 178.476562 481.75 L 158.121094 481.75 C 154.625 481.75 151.789062 484.585938 151.789062 488.082031 L 151.789062 686.078125 C 152.164062 706.390625 154.449219 726.765625 158.59375 746.625 C 161.925781 762.570312 166.507812 778.410156 172.203125 793.707031 C 173.128906 796.195312 175.496094 797.84375 178.136719 797.84375 L 311.582031 797.84375 C 314.222656 797.84375 316.589844 796.203125 317.511719 793.722656 C 323.210938 778.433594 327.792969 762.589844 331.125 746.636719 C 335.269531 726.765625 337.5625 706.394531 337.929688 685.976562 L 337.929688 488.09375 C 337.929688 484.59375 335.097656 481.757812 331.597656 481.757812 Z M 164.449219 527.398438 L 325.269531 527.398438 L 325.269531 547.71875 L 164.449219 547.71875 Z M 242.742188 39.285156 L 246.976562 39.285156 C 248.753906 48.179688 250.027344 57.160156 250.820312 66.199219 L 238.898438 66.199219 C 239.695312 57.160156 240.960938 48.179688 242.742188 39.285156 Z M 237.847656 87.863281 C 237.847656 84.855469 238.007812 81.859375 238.113281 78.859375 L 251.609375 78.859375 C 251.71875 81.859375 251.875 84.855469 251.875 87.863281 L 251.875 105.777344 L 237.847656 105.777344 Z M 237.847656 118.4375 L 251.875 118.4375 L 251.875 145.351562 L 237.847656 145.351562 Z M 237.847656 158.011719 L 251.875 158.011719 L 251.875 184.929688 L 237.847656 184.929688 Z M 237.847656 197.589844 L 251.875 197.589844 L 251.875 224.503906 L 237.847656 224.503906 Z M 237.847656 237.171875 L 251.875 237.171875 L 251.875 264.089844 L 237.847656 264.089844 Z M 237.847656 276.75 L 251.875 276.75 L 251.875 455.375 L 237.847656 455.375 Z M 191.136719 468.035156 L 298.578125 468.035156 L 298.578125 481.757812 L 191.136719 481.757812 Z M 325.269531 494.417969 L 325.269531 514.738281 L 164.449219 514.738281 L 164.449219 494.417969 Z M 318.734375 744.042969 C 315.835938 757.949219 311.941406 771.769531 307.15625 785.183594 L 182.566406 785.183594 C 177.78125 771.761719 173.894531 757.941406 170.988281 744.042969 C 167 724.957031 164.796875 705.382812 164.449219 685.96875 L 164.449219 560.378906 L 325.269531 560.378906 L 325.269531 685.855469 C 324.917969 705.378906 322.714844 724.949219 318.734375 744.042969 Z M 318.734375 744.042969 " fill-opacity="1" fill-rule="nonzero"/></g></svg>