<svg xmlns="http://www.w3.org/2000/svg" xmlns:xlink="http://www.w3.org/1999/xlink" width="1080" zoomAndPan="magnify" viewBox="0 0 810 809.999993" height="1080" preserveAspectRatio="xMidYMid meet" version="1.0"><defs><clipPath id="e30fc460b0"><path d="M 24.875 42.851562 L 480 42.851562 L 480 709.601562 L 24.875 709.601562 Z M 24.875 42.851562 " clip-rule="nonzero"/></clipPath><clipPath id="b78d85dd3e"><path d="M 777 420 L 785.375 420 L 785.375 429 L 777 429 Z M 777 420 " clip-rule="nonzero"/></clipPath></defs><rect x="-81" width="972" fill="#ffffff" y="-80.999999" height="971.999992" fill-opacity="1"/><rect x="-81" width="972" fill="#ffffff" y="-80.999999" height="971.999992" fill-opacity="1"/><g clip-path="url(#e30fc460b0)"><path stroke-linecap="butt" transform="matrix(0.253385, 0, 0, 0.253385, 24.906882, 42.852656)" fill-opacity="1" fill="#8a0005" fill-rule="nonzero" stroke-linejoin="miter" d="M 1465.989067 55.370804 C 1536.533763 30.07276 1609.514225 10.108734 1684.144224 1.830216 C 1713.974641 0.0573484 1748.923249 -4.922096 1773.357983 16.460224 C 1794.354896 35.792184 1794.139069 66.778818 1794.524475 93.10975 C 1795.464865 121.182716 1787.140098 148.191961 1780.958187 175.23204 C 1766.312763 258.140558 1738.702284 338.782889 1699.637542 413.351223 C 1629.308672 550.016156 1558.208991 686.249435 1488.527604 823.207277 C 1527.854422 855.720119 1537.982889 916.429257 1512.099029 960.257616 C 1423.779412 1126.244231 1339.714677 1294.512448 1251.348811 1460.452814 C 1285.665353 1494.75394 1295.454663 1550.267806 1275.274809 1594.358241 C 1256.544083 1634.980023 1234.776357 1674.091015 1213.871941 1713.587411 C 1073.954182 1980.858697 935.824706 2249.070374 797.356073 2517.081639 C 748.162863 2613.849353 618.882307 2661.716767 519.95632 2614.281008 C 400.942977 2552.415652 281.158822 2491.999423 162.145479 2430.087819 C 124.791939 2410.247123 83.476426 2394.707557 54.540151 2362.472207 C -3.239902 2300.637684 -16.467033 2203.099158 21.564822 2127.652098 C 174.940955 1834.019048 325.634663 1539.013953 478.99538 1245.39632 C 489.046766 1226.665593 497.895686 1207.256552 508.918295 1189.096226 C 533.060121 1149.646077 582.777482 1129.558722 627.854557 1136.89685 C 707.972736 981.470357 790.280021 827.200082 870.953184 672.035665 C 884.642802 647.215525 893.707549 618.757153 915.305696 599.301863 C 941.54413 575.514611 980.100136 567.498168 1014.062104 576.639996 C 1055.655109 493.392321 1100.655103 411.902097 1143.373493 329.240239 C 1167.885309 282.698622 1193.815418 235.956594 1230.490643 197.785993 C 1294.637602 130.154965 1380.074383 88.253635 1465.989067 55.370804 M 1417.335425 168.834302 C 1356.240882 199.836353 1295.67049 240.242307 1261.107288 301.213521 C 1280.547162 324.229962 1311.811289 330.828111 1340.485488 331.999745 C 1430.007572 335.946301 1518.15761 304.050109 1591.662224 254.456077 C 1631.713605 226.55269 1669.545049 193.82402 1696.153472 152.477675 C 1709.550181 132.26699 1707.91606 107.138525 1707.715649 84.045003 C 1606.816384 94.481795 1508.584127 124.959694 1417.335425 168.834302 M 1362.037386 416.835292 C 1310.994229 416.619465 1256.158677 407.477637 1215.552311 374.240232 C 1175.624259 454.620487 1133.029199 533.613281 1091.898681 613.392303 C 1198.887359 669.168246 1306.061033 724.682112 1412.494727 781.568023 C 1456.323087 699.384068 1497.546102 615.797236 1541.127802 533.443703 C 1577.355957 460.632819 1618.409393 390.18062 1651.292225 315.673951 C 1567.566647 376.598916 1465.942818 414.30703 1362.037386 416.835292 M 970.649983 667.827033 C 958.841146 686.68109 949.051837 706.814694 938.352969 726.347065 C 861.333453 875.25249 783.666455 1023.803342 706.986097 1172.878345 C 785.901809 1212.636818 863.830883 1254.368569 942.561601 1294.512448 C 1020.629421 1335.889626 1100.100118 1374.753957 1177.551289 1417.37985 C 1226.744498 1321.645024 1277.710575 1226.804339 1326.749622 1130.961599 C 1363.45568 1058.798198 1402.181265 987.652268 1437.823603 914.964715 C 1445.161732 901.953411 1435.064097 886.891749 1422.916103 881.388152 C 1283.815404 808.361442 1143.758899 737.092182 1004.78153 663.757147 C 994.05183 657.143581 978.203939 655.987364 970.649983 667.827033 M 571.831954 1254.060245 C 777.099139 1362.436385 983.491708 1468.654252 1189.005552 1576.50624 C 1195.017884 1562.631627 1204.899691 1547.092061 1197.469066 1531.845404 C 1191.765058 1516.614162 1174.976777 1511.372642 1162.011723 1504.065346 C 987.607843 1413.094137 812.911055 1322.708744 638.36843 1231.999611 C 626.174187 1225.293548 612.191661 1219.281216 598.14747 1223.921503 C 583.332467 1226.835172 578.044698 1242.343905 571.831954 1254.060245 M 531.30267 1329.368558 C 388.07042 1606.213327 243.496957 1882.410613 101.775498 2160.026194 C 80.007773 2202.88333 83.137269 2257.657217 112.119793 2296.429051 C 129.98721 2323.09914 161.020094 2334.76923 188.337664 2348.983 C 308.93888 2411.850411 430.310907 2473.284112 551.343777 2535.272798 C 611.282103 2565.334458 689.504085 2536.351934 720.552384 2478.171059 C 864.817522 2202.960411 1005.983997 1926.115643 1150.372464 1650.951244 C 1091.929513 1621.891639 1034.796942 1590.411685 976.878143 1560.365441 C 828.450621 1483.16093 679.853521 1406.264744 531.30267 1329.368558 Z M 531.30267 1329.368558 " stroke="#020202" stroke-width="0.094" stroke-opacity="1" stroke-miterlimit="4"/></g><path stroke-linecap="butt" transform="matrix(0.253385, 0, 0, 0.253385, 24.906882, 42.852656)" fill-opacity="1" fill="#8a0005" fill-rule="nonzero" stroke-linejoin="miter" d="M 2339.842996 996.069533 C 2341.600447 996.192863 2345.0691 996.40869 2346.841967 996.53202 C 2350.618945 1008.911258 2353.79469 1021.398409 2357.833744 1033.715982 C 2359.591195 1021.444658 2360.747412 1009.080836 2362.042376 996.794096 C 2410.773098 1000.278165 2457.484294 1016.295635 2502.129714 1035.273021 C 2582.972456 1068.448762 2659.575734 1110.874243 2735.223204 1154.363446 C 2735.531529 1167.158922 2735.346534 1180.046895 2735.223204 1192.873203 C 2739.308507 1183.130142 2743.470891 1173.479578 2748.01868 1163.983177 C 2751.148176 1165.524801 2757.376336 1168.669713 2760.474999 1170.211336 C 2760.166674 1180.863955 2759.704187 1191.547407 2759.133787 1202.246275 C 2764.375307 1194.337746 2769.740157 1186.444633 2775.490413 1178.844429 C 2775.70624 1182.883482 2776.184144 1190.946174 2776.399971 1194.985228 C 2776.831626 1191.639905 2777.725767 1184.856761 2778.157422 1181.496021 C 2782.489384 1186.275054 2786.574687 1191.33158 2790.444162 1196.665598 C 2799.323914 1200.735484 2808.034088 1205.113695 2816.66718 1209.846479 C 2816.235525 1221.901976 2815.819287 1234.019138 2815.557211 1246.120883 C 2819.550016 1237.102385 2823.58907 1228.130135 2828.260189 1219.450795 C 2833.239634 1233.80331 2831.220107 1248.957471 2831.312604 1263.803306 C 2835.783313 1253.721087 2839.205717 1243.207214 2844.015583 1233.279158 C 2846.03511 1233.541234 2850.027915 1234.019138 2852.001193 1234.265797 C 2854.113217 1248.309989 2853.851141 1262.647088 2856.949805 1276.552533 C 2862.484234 1267.287375 2865.61373 1256.850583 2869.436956 1246.799197 C 2882.787417 1256.896832 2878.116297 1275.442564 2885.932329 1288.793025 C 2887.936439 1281.624475 2889.925134 1274.455925 2891.898412 1267.333624 C 2901.934382 1273.469286 2911.908687 1279.774527 2921.821326 1286.218513 C 2909.534586 1313.828992 2900.608586 1349.84132 2869.313626 1361.696405 C 2872.751447 1344.47647 2877.299237 1327.349031 2876.960079 1309.62036 C 2866.43079 1325.545332 2858.614758 1343.274003 2846.081358 1357.842346 C 2838.959057 1367.415829 2825.855257 1366.629601 2815.464713 1369.466188 C 2825.346521 1346.064342 2835.644566 1322.585414 2839.467793 1297.302787 C 2817.653819 1327.056123 2794.051561 1358.135255 2759.873766 1374.322303 C 2680.865556 1396.398353 2597.278723 1397.893728 2516.435981 1385.606988 C 2479.853253 1381.275025 2444.210915 1371.701543 2407.797765 1366.167114 C 2408.583993 1298.921492 2400.81421 1230.797144 2377.628191 1167.374749 C 2378.830657 1236.809476 2386.554192 1307.93999 2368.655941 1375.956424 C 2351.436006 1385.052003 2332.41237 1390.416853 2314.976607 1399.219524 C 2302.951943 1357.364443 2289.81731 1315.632692 2272.689871 1275.535062 C 2275.958113 1322.369587 2282.432933 1368.957453 2284.498708 1415.884475 C 2263.763871 1425.457958 2242.720708 1434.522705 2220.47508 1439.964636 C 2211.50283 1424.255492 2204.473026 1407.59054 2195.238701 1392.097223 C 2195.454528 1408.546347 2196.903655 1425.026303 2196.780325 1441.521676 C 2182.304479 1442.030412 2167.921131 1442.585396 2153.50695 1443.155797 C 2127.361013 1381.490853 2110.433986 1316.573082 2086.739231 1254.060245 C 2090.038306 1316.66558 2102.494624 1378.530935 2114.087634 1440.057134 C 2090.46996 1440.057134 2066.821454 1439.57923 2043.280861 1442.030412 C 1995.583027 1393.608014 1960.341511 1334.995484 1919.118496 1281.331566 C 1928.907805 1316.018098 1945.403178 1348.130118 1959.817359 1381.028366 C 1948.964329 1385.406577 1936.723837 1391.233914 1925.007498 1386.439464 C 1911.055804 1380.380884 1900.911921 1368.572047 1888.979754 1359.599797 C 1898.553237 1380.288386 1912.289103 1402.025279 1935.135965 1409.440489 C 1948.871831 1414.63576 1963.347677 1410.010889 1976.960214 1406.865977 C 1986.225371 1421.511402 1996.107179 1435.77142 2005.757743 1450.154768 C 1987.566584 1464.060213 1969.575836 1478.181486 1951.153434 1491.794022 C 1904.180163 1458.741612 1868.368246 1413.433294 1827.623134 1373.59774 C 1837.335363 1399.574098 1851.333305 1423.577177 1865.454578 1447.349013 C 1854.246974 1450.154768 1841.883152 1454.270903 1830.798879 1448.767307 C 1813.501862 1440.565869 1801.26137 1425.242131 1785.814302 1414.419933 C 1790.577919 1429.666591 1799.457671 1442.93997 1809.123651 1455.47337 C 1794.431978 1464.060213 1778.214097 1472.986214 1760.655004 1471.521672 C 1741.245963 1467.744694 1728.188411 1451.434316 1712.602596 1440.750864 C 1725.058915 1464.491868 1741.847196 1488.448699 1767.900635 1498.361339 C 1775.50084 1501.706662 1783.702277 1498.916323 1791.47206 1497.544278 C 1800.583056 1498.962572 1809.771133 1499.486724 1819.036291 1499.132151 C 1811.698162 1496.002655 1804.097958 1491.747773 1795.77319 1493.335646 C 1807.705357 1488.27912 1818.388809 1480.848495 1829.164758 1473.757026 C 1848.357972 1481.573058 1869.66321 1482.729275 1888.887256 1474.404508 C 1899.2778 1486.475421 1910.439155 1497.852603 1921.862586 1509.013958 C 1887.345633 1532.631632 1852.01162 1555.463077 1813.378532 1571.819704 C 1807.751606 1573.76215 1802.078431 1577.44663 1795.989018 1576.244164 C 1754.766002 1568.782705 1718.013695 1547.400386 1683.789651 1524.260615 C 1701.271663 1549.666573 1722.653982 1572.420937 1746.687894 1591.752897 C 1731.194577 1596.547347 1716.549153 1603.546318 1701.271663 1608.926584 C 1663.008565 1605.658342 1625.963349 1592.215384 1593.635502 1571.603877 C 1608.049683 1593.032445 1627.628303 1610.298629 1648.070232 1625.838195 C 1640.177119 1628.320209 1632.361087 1632.498009 1623.851325 1631.927609 C 1602.391924 1626.346931 1585.295318 1611.624426 1567.134992 1599.76934 C 1575.2131 1615.833058 1586.759861 1629.568925 1597.41248 1643.906024 C 1565.639617 1644.985161 1540.264492 1623.047857 1518.327188 1602.868004 C 1519.313828 1588.268828 1527.345687 1576.38291 1535.93253 1565.129057 C 1540.310741 1568.952284 1544.688952 1572.806343 1549.144244 1576.675818 C 1549.190493 1564.743652 1540.218244 1551.732348 1547.725951 1540.833069 C 1557.129855 1544.347971 1564.483399 1551.516521 1572.546091 1557.220528 C 1567.443317 1542.112617 1555.75781 1528.376751 1558.686895 1511.542221 C 1571.220295 1517.431223 1581.39501 1526.865959 1591.477229 1536.146534 C 1583.19871 1521.254449 1575.506008 1505.884462 1571.081548 1489.342841 C 1578.435093 1492.657331 1585.511146 1496.51139 1592.217208 1501.074596 C 1588.131906 1493.859798 1584.524506 1486.382923 1581.086686 1478.921465 C 1593.712583 1461.269875 1599.432007 1436.758059 1618.748551 1425.195882 C 1617.592333 1417.595678 1618.748551 1410.303798 1624.622137 1405.031445 C 1630.773215 1410.997529 1636.646801 1417.179439 1642.659133 1423.36135 C 1639.390891 1410.427128 1625.747522 1396.228774 1636.261395 1383.51038 C 1644.986985 1385.869064 1651.800961 1392.18972 1659.108257 1397.246246 C 1655.716685 1385.360328 1642.443306 1370.11367 1653.912985 1359.26064 C 1659.231587 1360.802264 1664.565604 1362.559715 1669.791708 1364.579242 C 1667.355943 1358.952315 1664.904762 1353.371638 1662.499829 1347.79096 C 1666.276807 1341.701547 1670.392942 1335.812545 1674.909899 1330.278116 C 1679.719765 1335.596718 1684.606711 1340.961568 1689.509074 1346.326418 C 1685.423772 1331.989318 1677.052756 1314.383977 1692.715652 1303.916352 C 1698.897562 1311.639887 1704.879062 1319.625497 1711.353881 1327.179453 C 1708.224385 1316.326422 1703.152443 1306.059209 1701.179165 1294.974935 C 1703.152443 1287.128071 1709.257273 1281.331566 1713.805063 1274.980077 C 1718.44535 1278.972882 1723.039388 1282.99652 1727.633426 1287.128071 C 1725.228494 1277.415842 1722.823561 1267.549451 1723.671454 1257.498065 C 1730.331268 1260.504231 1736.682757 1264.157879 1742.695089 1268.412761 C 1738.794781 1257.420984 1736.050691 1245.565899 1745.146271 1236.454903 C 1751.636506 1242.436403 1757.818417 1248.787892 1763.861581 1255.216462 C 1761.071243 1243.931778 1749.139076 1229.209272 1761.117491 1219.805368 C 1771.07638 1230.457987 1778.599503 1243.068468 1787.525504 1254.584397 C 1782.54606 1239.121912 1777.813275 1223.536097 1772.201765 1208.28944 C 1778.1216 1201.768372 1784.211013 1195.416882 1790.53167 1189.28122 C 1794.771135 1194.7694 1799.195595 1200.303829 1803.758801 1205.637847 C 1802.124679 1197.343912 1800.274731 1189.142474 1798.301453 1181.033534 C 1805.68583 1173.340832 1813.455613 1166.002704 1821.348726 1158.834154 C 1823.892405 1163.76735 1826.420668 1168.715961 1829.087676 1173.649157 C 1828.347697 1161.454914 1825.094871 1147.287393 1839.000316 1141.44464 C 1840.29528 1143.587496 1842.823543 1147.842378 1844.10309 1149.985234 C 1846.168866 1142.215451 1848.481302 1134.491917 1851.364138 1126.98421 C 1858.918093 1135.386059 1865.315831 1144.789963 1872.237721 1153.808461 C 1870.125697 1142.647106 1867.551186 1131.65533 1865.269583 1120.586472 C 1873.995172 1114.049988 1882.705346 1107.575169 1891.338438 1100.961604 C 1897.011613 1111.521725 1903.270605 1121.788939 1909.930419 1131.77866 C 1908.342546 1119.029432 1905.798868 1106.403535 1902.453544 1094.039714 C 1911.256215 1089.538173 1920.182216 1085.283291 1929.200714 1081.213405 C 1934.488483 1091.603948 1940.06916 1101.809497 1945.988995 1111.907131 C 1945.310681 1099.712888 1944.185296 1087.564894 1942.81325 1075.447733 C 1978.840994 1066.012996 2016.533692 1069.188741 2052.391857 1077.821833 C 2058.049616 1093.746805 2064.5861 1109.378869 2071.107168 1124.949267 C 2071.060919 1110.39634 2071.060919 1095.843413 2071.785482 1081.336735 C 2101.631315 1091.588532 2133.835832 1102.626557 2165.562446 1093.916384 C 2201.975596 1082.755029 2226.703239 1051.968805 2256.841981 1030.632734 C 2276.759758 1015.555655 2299.945777 1005.427188 2324.118435 999.291526 C 2327.556256 1009.250415 2331.071158 1019.209303 2334.632308 1029.168192 C 2336.621003 1018.176416 2338.208875 1007.107558 2339.842996 996.069533 M 2458.470933 1253.243184 C 2451.425713 1250.329516 2444.349661 1247.323349 2437.35069 1244.533011 C 2438.676486 1257.760141 2445.45963 1269.137324 2456.143081 1276.953355 C 2455.680594 1290.211318 2454.940615 1303.484698 2455.927254 1316.742661 C 2472.931363 1313.489835 2473.100941 1292.78583 2479.282852 1279.959521 C 2496.040301 1274.02427 2509.082436 1261.105465 2514.370205 1244.008859 C 2504.750474 1248.047913 2494.961164 1251.655312 2484.863529 1254.229823 C 2486.883056 1209.630652 2486.374321 1164.723156 2478.219132 1120.709802 C 2471.605566 1164.846486 2466.286965 1209.245246 2458.470933 1253.243184 M 2618.784373 1269.430232 C 2600.238641 1279.389121 2577.2222 1275.565894 2556.919017 1274.671752 C 2557.304423 1252.904027 2559.925183 1231.012972 2556.225286 1209.368576 C 2546.651804 1244.918417 2528.15232 1277.338761 2519.642558 1313.227759 C 2552.186233 1312.965683 2583.142035 1302.112653 2613.296193 1290.8588 C 2611.692904 1302.621389 2610.290027 1314.383977 2610.105032 1326.285311 C 2644.976558 1292.061267 2653.393823 1239.599815 2652.407184 1192.703625 C 2642.957031 1218.89581 2635.063918 1246.506289 2618.784373 1269.430232 Z M 2618.784373 1269.430232 " stroke="#020202" stroke-width="0.094" stroke-opacity="1" stroke-miterlimit="4"/><path stroke-linecap="butt" transform="matrix(0.253385, 0, 0, 0.253385, 24.906882, 42.852656)" fill-opacity="1" fill="#8a0005" fill-rule="nonzero" stroke-linejoin="miter" d="M 2924.873741 1290.73547 C 2941.692855 1303.484698 2960.808988 1312.626526 2979.262222 1322.677912 C 2958.912791 1336.460027 2936.158426 1346.064342 2912.324925 1351.830014 C 2917.489364 1331.650161 2919.8018 1310.915324 2924.873741 1290.73547 Z M 2924.873741 1290.73547 " stroke="#020202" stroke-width="0.094" stroke-opacity="1" stroke-miterlimit="4"/><path stroke-linecap="butt" transform="matrix(0.253385, 0, 0, 0.253385, 24.906882, 42.852656)" fill-opacity="1" fill="#8a0005" fill-rule="nonzero" stroke-linejoin="miter" d="M 2525.439063 1522.842322 C 2589.154367 1486.336675 2665.20266 1474.111599 2737.366061 1487.107486 C 2751.364004 1511.203063 2772.283836 1530.134201 2787.946732 1553.058145 C 2799.416412 1568.181472 2806.970367 1585.740565 2817.314662 1601.57304 C 2810.963172 1565.514463 2794.683627 1532.277058 2779.837792 1499.132151 C 2819.118361 1525.324336 2842.782284 1567.996477 2860.773031 1610.468208 C 2855.053608 1568.859787 2831.312604 1533.094119 2821.739121 1492.734413 C 2858.491428 1518.757019 2877.807972 1561.043755 2895.721639 1600.894725 C 2892.838803 1565.807372 2874.848055 1534.296585 2869.776113 1499.687135 C 2897.648668 1521.331531 2909.750414 1555.170169 2927.016598 1584.568931 C 2923.794605 1555.201001 2913.619889 1527.297614 2902.288955 1500.257536 C 2936.975487 1508.628552 2947.150202 1547.431218 2960.932318 1575.596682 C 2955.043315 1573.068419 2949.262227 1570.540156 2943.542803 1567.965645 C 2945.439 1574.779621 2947.412278 1581.655263 2949.431805 1588.530904 C 2942.509915 1598.659371 2936.805908 1609.481569 2931.872712 1620.689173 C 2925.86038 1612.225659 2919.925129 1603.762145 2913.57364 1595.653205 C 2915.37734 1613.042719 2919.077236 1630.432234 2917.134791 1648.037575 C 2907.484227 1636.737474 2901.718555 1622.955359 2894.041269 1610.421959 C 2897.170765 1630.910137 2905.973436 1651.984132 2899.282789 1672.765218 C 2889.57056 1659.846412 2883.095741 1645.031409 2874.894304 1631.203046 C 2878.239627 1653.83408 2888.198515 1676.28012 2883.003244 1699.41989 C 2872.705198 1689.507251 2865.397902 1677.143429 2857.797698 1665.211262 C 2861.543843 1684.743634 2868.835723 1704.229756 2866.261211 1724.455858 C 2857.581871 1715.869014 2851.662036 1705.262644 2845.140968 1695.134177 C 2847.761728 1709.008789 2850.891224 1722.790904 2851.708285 1736.958425 C 2846.343434 1744.512381 2841.148163 1752.235915 2835.598318 1759.666541 C 2830.156386 1751.72718 2824.822369 1743.818651 2819.765843 1735.663462 C 2823.326994 1750.9872 2827.057723 1766.742594 2823.619902 1782.544236 C 2816.713429 1777.703538 2810.408188 1772.24619 2804.735013 1766.110528 C 2807.093697 1775.468183 2809.036143 1784.949169 2811.009421 1794.44557 C 2779.31364 1830.072492 2749.652801 1867.641859 2713.794636 1899.368473 C 2707.443147 1888.03754 2701.985799 1876.274951 2695.803888 1864.897769 C 2697.222182 1879.882351 2699.93544 1894.697354 2702.67953 1909.543189 C 2695.51098 1916.033424 2688.080354 1922.215335 2680.35682 1927.965591 C 2674.421569 1912.133117 2668.501734 1896.192729 2661.02486 1881.038568 C 2662.751478 1899.723047 2665.803893 1918.22253 2668.717562 1936.722013 C 2658.111191 1943.859731 2646.949836 1949.995393 2635.233497 1954.974837 C 2631.456519 1958.875145 2627.679541 1962.790869 2623.933396 1966.691176 C 2618.568545 1954.034447 2613.804928 1941.146473 2607.700099 1928.8289 C 2606.112227 1945.062197 2615.300303 1964.239995 2602.859401 1977.821699 C 2594.519217 1960.94092 2590.526412 1942.395188 2583.404111 1925.098171 C 2582.247893 1944.275969 2584.729907 1963.438351 2585.115313 1982.616148 C 2572.890238 1987.950166 2560.356838 1992.451707 2547.900519 1997.184492 C 2543.984795 1984.466097 2539.652833 1971.886448 2533.517171 1960.12386 C 2534.457561 1973.782645 2535.922103 1987.395182 2537.386646 2001.038551 C 2529.185208 2003.443483 2520.983771 2005.771335 2512.736084 2007.914192 C 2508.188295 1995.843279 2503.378429 1983.957361 2497.659005 1972.441433 C 2497.196518 1984.990249 2497.581924 1997.523649 2497.844 2010.103297 C 2482.766921 2012.847387 2467.612761 2015.12899 2452.458601 2017.17935 C 2447.556238 2003.58223 2442.623042 1989.923444 2436.780289 1976.742562 C 2436.179056 1990.570926 2436.872786 2004.383874 2436.996116 2018.304735 C 2416.261279 2018.690141 2395.603522 2016.716863 2374.961182 2015.946051 C 2349.031073 2014.990244 2326.908774 2030.236902 2304.370237 2040.673694 C 2296.384626 2028.047796 2289.308574 2014.913163 2281.662121 2002.117687 C 2282.77209 2017.533923 2284.745368 2032.903911 2286.518235 2048.320147 C 2277.40724 2052.097125 2268.049584 2055.396199 2258.738178 2058.448614 C 2252.46377 2051.927546 2246.158529 2045.437311 2239.837872 2039.039573 C 2240.392857 2047.287259 2241.040339 2055.519529 2241.518242 2063.859713 C 2219.827598 2070.257451 2197.458639 2074.327337 2174.966351 2076.177285 C 2164.406229 2063.042652 2155.310649 2048.828883 2144.873858 2035.648001 C 2148.049602 2049.430116 2152.119489 2063.119733 2155.310649 2076.948097 C 2109.570677 2081.495887 2063.414466 2079.908015 2018.722797 2068.839157 C 2009.195563 2055.010793 2000.177065 2040.719942 1988.368228 2028.695278 C 1992.237704 2040.411618 1996.107179 2052.174206 1998.851269 2064.291367 C 1984.683748 2063.212231 1976.050656 2053.376672 1971.148293 2041.012851 C 1970.038324 2044.281093 1967.849218 2050.84841 1966.739249 2054.101235 C 1950.983856 2049.815522 1936.168853 2042.81655 1920.829698 2037.359203 C 1915.387766 2034.70761 1907.910892 2033.967631 1905.45971 2027.66239 C 1897.612846 2012.338652 1891.508017 1996.151604 1882.412437 1981.506179 C 1884.385716 1995.627452 1888.116445 2009.502064 1888.548099 2023.839164 C 1873.948924 2018.165989 1871.806067 2001.562703 1865.747486 1989.198881 C 1864.760847 1996.321182 1863.820457 2003.489732 1862.833817 2010.704531 C 1840.372361 1998.386958 1817.27884 1987.179354 1795.202789 1974.2143 C 1784.642668 1961.156748 1781.852329 1943.458909 1775.886246 1927.965591 C 1775.022936 1940.637737 1775.207931 1953.340716 1774.945855 1966.089943 C 1757.510092 1951.629514 1753.902693 1928.659322 1747.165798 1908.43322 C 1745.269601 1921.475356 1746.00958 1934.656238 1745.238768 1947.83712 C 1725.135996 1934.270832 1725.398072 1907.61616 1716.549153 1887.312977 C 1714.791702 1901.989233 1715.655011 1916.804236 1715.053778 1931.619239 C 1700.285024 1916.249252 1696.677624 1894.697354 1690.01781 1875.288312 C 1688.044532 1888.130037 1687.319969 1901.125924 1685.130863 1913.967649 C 1675.464883 1899.846377 1670.747515 1883.273923 1662.931483 1868.196844 C 1661.806098 1876.706606 1660.603632 1885.154703 1659.231587 1893.664466 C 1651.72388 1888.638773 1644.077427 1883.921405 1636.523471 1879.019042 C 1626.518334 1874.301673 1626.472085 1862.014933 1622.741356 1853.042684 C 1619.257286 1858.114625 1615.788633 1863.217399 1612.134985 1868.196844 C 1607.371368 1842.991298 1609.298398 1817.030356 1614.801994 1792.117718 C 1616.004461 1783.870032 1624.020903 1779.753897 1629.432002 1774.435296 C 1632.006514 1805.730255 1636.739298 1837.28729 1648.625216 1866.53189 C 1645.834878 1830.719974 1645.37239 1793.751839 1658.553272 1759.697374 C 1671.687906 1794.306824 1671.256251 1832.354095 1685.161696 1866.732301 C 1680.182252 1823.119769 1682.371357 1777.996446 1699.976699 1737.251334 C 1707.746482 1778.335603 1707.576903 1820.761085 1719.771146 1861.074543 C 1716.76498 1816.598701 1719.50907 1770.904977 1737.761894 1729.65113 C 1743.990053 1764.044752 1745.238768 1799.240019 1753.563536 1833.294485 C 1756.646783 1789.034471 1764.462815 1745.329442 1773.527561 1701.963569 C 1774.298373 1691.696356 1785.598474 1688.258536 1792.674527 1682.939934 C 1859.272667 1638.757001 1943.075327 1626.084855 2021.266476 1637.724113 C 2056.631322 1643.520618 2091.379518 1652.847441 2125.94272 1662.235929 C 2131.338402 1735.278056 2131.692976 1809.337654 2147.833775 1881.208147 C 2152.643641 1810.200963 2154.524421 1739.008785 2160.197596 1668.078682 C 2175.521335 1672.333564 2191.245896 1675.077654 2207.07837 1676.835105 C 2215.541884 1727.246197 2223.959149 1777.688121 2234.596352 1827.713808 C 2224.637463 1831.028298 2214.724824 1834.327373 2204.935514 1837.981021 C 2215.063981 1842.605892 2226.009508 1845.226652 2236.184224 1849.913188 C 2242.79779 1871.341756 2248.424716 1893.140314 2255.947839 1914.306806 C 2256.626153 1893.787796 2253.928312 1873.438364 2253.573739 1852.965602 C 2252.371272 1844.841246 2257.751539 1838.443508 2261.436019 1831.876191 C 2256.502823 1828.022132 2247.530574 1826.418844 2248.470964 1818.618228 C 2245.29522 1772.415769 2242.628211 1726.213309 2239.837872 1680.010849 C 2250.613821 1680.750829 2261.436019 1680.920407 2272.304465 1680.658331 C 2287.289047 1728.140338 2299.467874 1776.79398 2318.661088 1822.811445 C 2315.839916 1773.30991 2308.702199 1724.193782 2301.626147 1675.170151 C 2311.754614 1671.609 2321.590172 1667.261622 2330.901579 1661.850523 C 2337.438063 1686.716912 2348.337342 1710.07251 2357.47917 1734.029341 C 2373.018736 1773.063251 2387.710409 1812.420901 2404.159533 1851.069405 C 2401.1842 1815.427067 2392.643605 1780.617206 2386.554192 1745.452772 C 2392.566524 1744.204056 2398.563439 1742.955341 2404.668269 1741.845372 C 2410.803931 1752.698403 2417.371248 1763.443519 2425.665183 1772.924504 C 2424.678543 1759.142389 2421.795707 1745.62235 2419.221196 1732.133144 C 2424.539797 1727.462024 2429.997145 1722.867986 2435.454493 1718.273947 C 2429.056755 1717.93479 2422.659017 1717.672714 2416.33836 1717.364389 C 2410.896428 1714.142396 2405.315751 1711.182479 2399.735073 1708.39214 C 2399.519246 1712.554524 2399.087591 1720.971789 2398.871764 1725.134172 C 2392.381529 1725.057091 2381.173925 1731.793986 2379.031068 1722.004676 C 2369.935489 1697.616191 2363.198594 1672.379812 2356.276704 1647.297596 C 2417.509994 1612.441486 2462.895393 1555.678905 2525.439063 1522.842322 M 2695.51098 1497.158872 C 2706.672335 1523.643966 2720.793607 1548.94201 2738.321868 1571.819704 C 2755.110149 1594.666566 2766.733991 1620.720005 2776.615798 1647.174266 C 2773.177978 1588.530904 2742.438003 1532.415804 2695.51098 1497.158872 M 2651.805951 1528.453832 C 2659.652815 1552.456911 2668.332156 1576.583321 2683.10091 1597.333575 C 2703.404093 1626.439429 2718.095766 1658.674778 2731.538724 1691.403448 C 2729.858354 1659.276012 2721.441089 1627.718976 2708.907689 1598.181468 C 2696.759695 1570.108502 2675.423624 1547.354137 2651.805951 1528.453832 M 2601.009452 1584.877256 C 2603.676461 1600.247243 2610.798762 1614.198937 2616.857343 1628.412707 C 2608.655906 1637.215378 2600.361971 1645.925551 2592.592188 1655.113628 C 2604.231446 1653.572004 2615.608628 1650.057102 2627.294135 1648.71589 C 2652.268438 1671.639833 2666.14305 1703.674772 2681.775114 1733.166031 C 2676.749421 1675.817633 2651.805951 1615.879307 2601.009452 1584.877256 M 2528.583975 1677.313008 C 2531.235568 1682.939934 2534.118404 1688.56686 2537.12457 1694.101289 C 2527.843996 1697.061206 2518.578838 1699.944043 2509.128685 1702.210229 C 2499.508954 1690.61722 2489.287989 1679.502113 2477.186244 1670.529864 C 2467.90567 1690.154733 2484.401042 1709.347947 2489.503816 1727.939927 C 2510.207822 1768.854618 2528.707305 1810.848445 2546.574723 1853.042684 C 2541.626111 1809.260573 2530.418507 1766.280107 2516.559311 1724.502107 C 2526.009464 1717.287308 2535.829606 1710.673743 2546.096819 1704.661411 C 2552.201649 1708.792962 2558.460641 1712.69327 2564.950876 1716.37775 C 2559.971432 1702.518554 2553.820354 1688.998515 2544.940602 1677.22051 C 2549.488391 1671.470254 2554.20576 1665.843328 2559.015625 1660.355148 C 2548.548001 1665.42709 2537.772052 1670.051961 2528.583975 1677.313008 M 1811.913989 1856.526753 C 1812.206898 1831.413704 1809.678635 1806.254407 1813.162705 1781.264688 C 1817.494667 1748.674765 1819.760854 1715.776517 1818.435057 1682.893685 C 1793.368257 1736.989258 1792.119542 1800.581232 1811.913989 1856.526753 M 1858.455606 1734.676823 C 1852.70535 1736.958425 1846.862597 1739.147531 1841.019843 1741.151642 C 1846.307612 1740.642906 1851.626214 1740.165003 1856.991064 1739.656267 C 1850.547077 1785.211245 1859.395997 1831.583283 1875.968451 1874.085846 C 1875.845121 1862.878242 1874.858482 1851.716887 1874.426827 1840.555532 C 1871.682737 1792.64187 1886.913978 1743.911148 1870.942758 1697.014958 C 1865.284999 1709.039622 1863.912954 1722.575077 1858.455606 1734.676823 M 1916.066081 1733.520605 C 1923.635453 1737.467161 1931.312738 1741.552464 1938.912943 1745.668599 C 1925.392904 1792.857698 1929.385709 1843.561698 1948.270598 1888.73127 C 1947.191462 1842.605892 1953.558367 1796.542178 1963.763915 1751.72718 C 1978.28601 1746.439411 1993.532667 1743.433245 2007.77727 1737.420913 C 1994.426809 1733.736432 1980.860521 1730.761099 1967.294233 1728.063257 C 1965.182209 1725.319167 1960.973577 1719.815571 1958.876969 1717.071481 C 1945.649838 1725.272918 1931.698144 1731.670656 1916.066081 1733.520605 M 2051.574796 1751.418855 C 2043.280861 1764.522656 2039.210975 1779.53807 2036.328139 1794.615149 C 2023.671409 1796.542178 2010.953014 1798.268797 1998.512112 1801.089968 C 2010.906766 1805.17527 2024.010566 1806.547315 2036.590215 1810.108466 C 2040.490523 1816.937859 2043.542937 1824.229738 2047.8749 1830.935801 C 2052.006451 1822.225628 2054.488465 1812.729226 2059.467909 1804.48154 C 2067.499768 1801.567871 2076.086612 1800.704562 2084.550126 1799.378766 C 2088.065027 1809.892639 2091.456599 1820.545258 2095.83481 1830.843304 C 2097.777256 1814.918332 2101.461737 1798.392126 2097.176023 1782.590484 C 2085.197607 1783.09922 2073.435019 1785.550402 2061.487436 1786.074554 C 2058.311692 1774.435296 2056.261332 1762.503129 2051.574796 1751.418855 Z M 2051.574796 1751.418855 " stroke="#020202" stroke-width="0.094" stroke-opacity="1" stroke-miterlimit="4"/><g clip-path="url(#b78d85dd3e)"><path stroke-linecap="butt" transform="matrix(0.253385, 0, 0, 0.253385, 24.906882, 42.852656)" fill-opacity="1" fill="#8a0005" fill-rule="nonzero" stroke-linejoin="miter" d="M 2969.781237 1491.624444 C 2979.832623 1490.807383 2989.914842 1490.32948 3000.043309 1490.468226 C 2997.468797 1501.660413 2993.691819 1512.52886 2989.406106 1523.181479 C 2982.823373 1512.65219 2976.302305 1502.138317 2969.781237 1491.624444 Z M 2969.781237 1491.624444 " stroke="#020202" stroke-width="0.094" stroke-opacity="1" stroke-miterlimit="4"/></g><path stroke-linecap="butt" transform="matrix(0.253385, 0, 0, 0.253385, 24.906882, 42.852656)" fill-opacity="1" fill="#8a0005" fill-rule="nonzero" stroke-linejoin="miter" d="M 2944.406112 1499.301729 C 2961.795627 1503.818686 2973.034063 1518.448694 2984.627073 1531.074592 C 2976.641462 1541.77346 2969.781237 1553.196891 2963.044342 1564.697403 C 2955.35164 1543.361332 2948.660994 1521.593607 2944.406112 1499.301729 Z M 2944.406112 1499.301729 " stroke="#020202" stroke-width="0.094" stroke-opacity="1" stroke-miterlimit="4"/><path stroke-linecap="butt" transform="matrix(0.253385, 0, 0, 0.253385, 24.906882, 42.852656)" fill-opacity="1" fill="#8a0005" fill-rule="nonzero" stroke-linejoin="miter" d="M 1474.406332 1657.225652 C 1487.833873 1637.600784 1504.930479 1620.550426 1515.706428 1599.168107 C 1526.096971 1618.669646 1537.767062 1637.693281 1552.921222 1653.911161 C 1527.129859 1659.584336 1500.552268 1659.414758 1474.406332 1657.225652 Z M 1474.406332 1657.225652 " stroke="#020202" stroke-width="0.094" stroke-opacity="1" stroke-miterlimit="4"/><path stroke-linecap="butt" transform="matrix(0.253385, 0, 0, 0.253385, 24.906882, 42.852656)" fill-opacity="1" fill="#8a0005" fill-rule="nonzero" stroke-linejoin="miter" d="M 986.066219 1667.261622 C 998.291295 1663.530893 1012.505064 1664.132126 1023.450592 1671.254427 C 1042.813385 1682.338701 1048.656138 1710.242088 1037.618113 1729.096145 C 957.900756 1878.340727 881.297479 2029.126933 803.337573 2179.219408 C 763.872008 2256.932654 722.356084 2333.535932 683.969656 2411.804162 C 674.704498 2434.774354 644.380762 2446.105288 622.566788 2433.911045 C 601.276965 2423.181345 594.755898 2393.50509 606.688064 2373.541064 C 724.976844 2146.814479 841.801082 1919.301667 959.658207 1692.343838 C 965.069306 1681.182483 973.779479 1670.869021 986.066219 1667.261622 Z M 986.066219 1667.261622 " stroke="#020202" stroke-width="0.094" stroke-opacity="1" stroke-miterlimit="4"/><path stroke-linecap="butt" transform="matrix(0.253385, 0, 0, 0.253385, 24.906882, 42.852656)" fill-opacity="1" fill="#8a0005" fill-rule="nonzero" stroke-linejoin="miter" d="M 1529.180219 1804.311961 C 1540.526568 1800.149577 1552.335405 1797.451736 1564.221323 1795.38596 C 1563.358014 1807.580203 1563.327182 1819.851527 1562.710532 1832.092019 C 1550.562538 1824.06016 1539.447432 1814.625423 1529.180219 1804.311961 Z M 1529.180219 1804.311961 " stroke="#020202" stroke-width="0.094" stroke-opacity="1" stroke-miterlimit="4"/><path stroke-linecap="butt" transform="matrix(0.253385, 0, 0, 0.253385, 24.906882, 42.852656)" fill-opacity="1" fill="#8a0005" fill-rule="nonzero" stroke-linejoin="miter" d="M 1569.370346 1837.549366 C 1575.721836 1823.243099 1573.918136 1796.711757 1593.758832 1794.954306 C 1598.183292 1815.904971 1600.757803 1837.241042 1605.228512 1858.237955 C 1593.635502 1850.730248 1581.39501 1844.286261 1569.370346 1837.549366 Z M 1569.370346 1837.549366 " stroke="#020202" stroke-width="0.094" stroke-opacity="1" stroke-miterlimit="4"/></svg>