<svg xmlns="http://www.w3.org/2000/svg" xmlns:xlink="http://www.w3.org/1999/xlink" width="1080" zoomAndPan="magnify" viewBox="0 0 810 809.999993" height="1080" preserveAspectRatio="xMaxYMid meet" version="1.0"><defs><clipPath id="73599ea771"><path d="M 79.019531 69 L 306 69 L 306 766 L 79.019531 766 Z M 79.019531 69 " clip-rule="nonzero"/></clipPath><clipPath id="30b8a42fda"><path d="M 488 30.371094 L 570 30.371094 L 570 128 L 488 128 Z M 488 30.371094 " clip-rule="nonzero"/></clipPath></defs><path fill="#8a0005" d="M 364.476562 249.726562 C 367.902344 249.734375 371.722656 250.8125 375.109375 251.382812 C 382.890625 252.703125 390.691406 254.078125 398.519531 255.089844 C 422.621094 258.007812 446.804688 259.972656 471.0625 260.984375 C 503.15625 262.300781 536.03125 260.265625 567.898438 256.265625 C 575.9375 255.269531 583.949219 254.105469 591.9375 252.773438 C 596.882812 251.953125 602.011719 250.738281 607.003906 250.335938 C 608.621094 250.207031 610.84375 249.949219 612.089844 251.15625 C 613.996094 253.007812 614.261719 257.785156 614.472656 260.355469 C 615.035156 267.132812 615.425781 274.464844 614.832031 281.238281 C 614.390625 286.269531 613.15625 291.328125 612.265625 296.304688 C 610.71875 305.027344 609.21875 313.761719 607.761719 322.5 C 604.3125 343.308594 601.066406 364.429688 598.640625 385.382812 C 592.949219 434.519531 591.71875 484.421875 591.414062 533.851562 C 620.164062 535.582031 650.007812 543.191406 674.484375 558.71875 C 700.390625 575.152344 718.722656 598.84375 725.417969 629.054688 C 728.558594 643.226562 728.296875 657.332031 728.433594 671.742188 C 728.578125 683.867188 728.664062 695.992188 728.6875 708.113281 L 728.679688 725.863281 C 728.675781 729.132812 728.894531 732.570312 728.515625 735.8125 C 728.125 739.15625 727.078125 742.476562 725.199219 745.292969 C 716.488281 758.347656 693.691406 762.355469 679.3125 765.394531 C 622.339844 777.136719 506.363281 779.617188 453.082031 756.121094 C 451.207031 758.667969 449.117188 760.558594 446.421875 762.195312 C 424.285156 775.6875 373.222656 774.835938 348.058594 768.734375 C 340.046875 766.792969 328.160156 763.707031 323.730469 755.96875 C 322.785156 754.320312 322.636719 753.011719 322.535156 751.140625 C 321.714844 736.039062 321.875 720.75 321.554688 705.621094 L 319.707031 612.097656 L 318.371094 535.101562 C 317.941406 515.40625 317.042969 495.703125 317.449219 476.003906 C 317.542969 471.394531 317.886719 466.863281 319.011719 462.378906 C 322.324219 449.175781 331.164062 440.070312 342.480469 433.226562 C 342.652344 419.804688 342.347656 406.289062 342.261719 392.859375 C 342.226562 386.878906 341.578125 380.460938 342.375 374.554688 C 342.679688 372.3125 343.320312 370.394531 344.667969 368.554688 C 350.554688 360.519531 363.664062 358.398438 372.8125 356.914062 C 369.796875 341.492188 367.539062 325.949219 365.027344 310.441406 C 363.378906 300.28125 360.855469 287.808594 360.148438 277.691406 C 359.742188 271.820312 360.21875 258.847656 361.621094 253.214844 C 362.082031 251.359375 362.847656 250.65625 364.476562 249.726562 Z M 364.476562 249.726562 " fill-opacity="1" fill-rule="nonzero"/><path fill="none" d="M 370.339844 283.253906 C 376.304688 283.886719 382.367188 285.441406 388.289062 286.492188 C 398.863281 288.332031 409.484375 289.875 420.144531 291.109375 C 475.539062 297.222656 550.867188 296.425781 605.085938 283.46875 C 604.429688 295.5625 601.332031 308.058594 599.28125 319.996094 C 596.171875 339.066406 593.269531 358.164062 590.570312 377.292969 C 585.652344 414.324219 583.839844 451.953125 582.96875 489.273438 C 582.507812 504.015625 582.261719 518.765625 582.230469 533.519531 C 575.746094 533.617188 569.382812 533.8125 562.933594 534.59375 C 561.613281 534.738281 560.292969 534.90625 558.976562 535.105469 C 520.339844 540.585938 482.859375 555.953125 458.777344 588.007812 C 459.148438 578.265625 458.890625 568.417969 458.945312 558.667969 L 459.292969 510.921875 L 459.40625 487.25 C 459.460938 478.875 460.066406 470.167969 458.109375 461.960938 C 454.941406 448.691406 445.3125 440.292969 434.222656 433.414062 L 434.253906 388.828125 C 434.269531 382.070312 435.902344 372.277344 430.652344 367.234375 C 420.144531 357.144531 395.796875 356.394531 381.960938 356.769531 L 374.636719 311.335938 C 373.125 301.980469 371.429688 292.667969 370.339844 283.253906 Z M 370.339844 283.253906 " fill-opacity="1" fill-rule="nonzero"/><path fill="none" d="M 343.386719 442.734375 C 344.875 443.011719 346.597656 444.167969 348.019531 444.777344 C 351.113281 446.097656 354.277344 447.402344 357.546875 448.21875 C 378.191406 453.347656 414.101562 453.824219 432.296875 442.726562 C 435.457031 444.664062 438.496094 446.699219 441.144531 449.308594 C 445.023438 453.132812 448.5625 458.746094 449.582031 464.144531 C 451.398438 473.75 450.667969 484.273438 450.589844 494.019531 L 449.824219 545.9375 L 449.636719 580.546875 C 449.636719 586.851562 450.1875 593.566406 449.488281 599.820312 C 448.984375 604.289062 446.035156 608.964844 444.355469 613.164062 C 442.738281 617.296875 441.335938 621.503906 440.152344 625.785156 C 437.386719 636.03125 437.699219 645.636719 437.773438 656.121094 L 437.984375 679.421875 L 437.503906 679.570312 C 412.730469 687 351.78125 687.324219 329.515625 675.320312 C 328.671875 656 328.800781 636.492188 328.539062 617.140625 L 327.242188 528.550781 L 326.835938 494.230469 C 326.664062 485.203125 325.628906 475.363281 327.316406 466.476562 C 329.25 456.292969 334.882812 448.453125 343.386719 442.734375 Z M 343.386719 442.734375 " fill-opacity="1" fill-rule="nonzero"/><path fill="none" d="M 486.015625 572.867188 C 496.667969 575.378906 506.15625 578.15625 517.136719 579.941406 C 522.800781 580.835938 528.476562 581.613281 534.171875 582.273438 C 539.867188 582.9375 545.574219 583.480469 551.292969 583.90625 C 557.007812 584.328125 562.734375 584.636719 568.464844 584.824219 C 574.195312 585.015625 579.925781 585.085938 585.65625 585.035156 C 591.390625 584.988281 597.121094 584.824219 602.847656 584.539062 C 608.574219 584.253906 614.292969 583.855469 620 583.332031 C 625.710938 582.8125 631.40625 582.175781 637.089844 581.421875 C 642.773438 580.664062 648.4375 579.792969 654.085938 578.804688 C 662.574219 577.230469 671.042969 575.578125 679.296875 573.019531 C 679.5625 573.203125 679.828125 573.386719 680.089844 573.578125 C 700.089844 588.34375 714.339844 610.769531 718.160156 635.417969 C 706.425781 642.96875 695.738281 646.089844 682.410156 649.523438 C 643.007812 657.726562 602.664062 659.769531 562.503906 658.53125 C 545.738281 657.894531 529.03125 656.582031 512.375 654.59375 C 494.828125 652.5 478.152344 650.125 461.234375 644.800781 C 457.257812 643.550781 450.410156 641.675781 447.683594 638.308594 C 446.714844 637.113281 447.09375 635.320312 447.324219 633.914062 C 450.875 612.191406 468.175781 585.746094 486.015625 572.867188 Z M 486.015625 572.867188 " fill-opacity="1" fill-rule="nonzero"/><path fill="none" d="M 718.796875 646.046875 C 718.839844 646.085938 718.894531 646.117188 718.929688 646.160156 C 720.117188 647.726562 719.421875 689.273438 719.320312 695.792969 C 711.605469 706.898438 688.386719 711.839844 675.542969 714.410156 C 660.710938 717.378906 645.308594 719.089844 630.222656 720.117188 C 586.8125 723.078125 486.171875 723.261719 450.546875 699.535156 C 449.261719 698.601562 448.117188 697.40625 446.957031 696.324219 C 446.117188 681.011719 446.734375 663.597656 446.789062 648.175781 C 451.636719 650.503906 456.496094 652.632812 461.636719 654.234375 C 519.765625 672.335938 646.582031 673.160156 703.835938 652.933594 C 709.070312 651.082031 713.90625 648.632812 718.796875 646.046875 Z M 718.796875 646.046875 " fill-opacity="1" fill-rule="nonzero"/><path fill="none" d="M 719.5 706.714844 C 720.472656 710.59375 720.027344 733.113281 719.667969 738.265625 C 718.710938 739.847656 717.605469 741.222656 716.222656 742.453125 C 704.296875 753.09375 681.527344 756.027344 666.007812 758.335938 C 655.71875 759.859375 645.394531 761.113281 635.042969 762.097656 C 624.6875 763.082031 614.3125 763.796875 603.921875 764.238281 C 593.53125 764.683594 583.132812 764.859375 572.734375 764.761719 C 562.332031 764.667969 551.941406 764.300781 541.558594 763.664062 C 519.582031 762.351562 462.03125 758.210938 447.277344 741.582031 C 445.722656 736.640625 446.765625 713.859375 446.964844 707.316406 C 451.300781 710.027344 455.675781 712.632812 460.390625 714.640625 C 475.144531 720.925781 492.734375 723.46875 508.507812 725.628906 C 555.089844 732.011719 604.890625 731.945312 651.550781 726.746094 C 670.273438 724.65625 691.191406 721.867188 708.429688 713.808594 C 712.488281 711.914062 715.953125 709.410156 719.5 706.714844 Z M 719.5 706.714844 " fill-opacity="1" fill-rule="nonzero"/><path fill="none" d="M 329.371094 684.816406 C 349.265625 694.0625 391.421875 694.792969 413.394531 692.617188 C 421.722656 691.792969 429.867188 690.140625 438.042969 688.398438 C 437.570312 703.222656 437.5625 718.164062 437.722656 732.992188 C 437.816406 741.96875 439.207031 745.367188 445.734375 751.707031 C 444.527344 752.742188 443.203125 753.636719 441.910156 754.558594 C 430.570312 760.800781 414.90625 762.476562 402.078125 763.453125 C 384.539062 764.789062 344.277344 763.605469 330.882812 752.117188 C 330.652344 729.679688 330.148438 707.246094 329.371094 684.816406 Z M 329.371094 684.816406 " fill-opacity="1" fill-rule="nonzero"/><path fill="none" d="M 573.78125 542.835938 C 600.964844 541.234375 631.277344 547.132812 655.96875 558.566406 C 660.832031 560.820312 665.777344 563.117188 669.953125 566.523438 C 653.894531 569.753906 637.695312 572.75 621.386719 574.367188 C 611.691406 575.328125 601.976562 575.617188 592.246094 575.914062 C 579.730469 576.050781 567.230469 575.675781 554.746094 574.796875 C 542.261719 573.917969 529.835938 572.53125 517.464844 570.640625 C 509.960938 569.46875 502.320312 568.398438 495.027344 566.238281 C 516.601562 551.890625 548.140625 544.324219 573.78125 542.835938 Z M 573.78125 542.835938 " fill-opacity="1" fill-rule="nonzero"/><path fill="none" d="M 604.050781 260.015625 C 604.394531 259.957031 604.8125 260.070312 605.15625 260.117188 C 606.628906 262.6875 606.242188 270.730469 606.347656 273.949219 C 544.085938 287.328125 469.808594 288.261719 406.757812 280.003906 C 395.121094 278.476562 383.578125 276.171875 372.039062 274.03125 C 371.085938 273.910156 370.539062 273.820312 369.742188 273.265625 C 368.28125 269.941406 369.660156 264.09375 370.019531 260.527344 C 379.578125 261.09375 389.171875 263.21875 398.679688 264.441406 C 412.902344 266.273438 427.363281 267.523438 441.648438 268.773438 C 493.730469 273.316406 552.691406 270.484375 604.050781 260.015625 Z M 604.050781 260.015625 " fill-opacity="1" fill-rule="nonzero"/><path fill="none" d="M 377.191406 366.210938 C 383.277344 365.605469 389.898438 365.789062 396.007812 366.148438 C 402.476562 366.527344 417.878906 367.738281 422.292969 372.683594 C 422.5 373.5625 422.703125 373.945312 422.097656 374.742188 C 419.054688 378.738281 404.945312 380.097656 400.242188 380.484375 C 388.492188 381.585938 371.917969 381.546875 360.667969 377.730469 C 358.582031 377.023438 354.679688 375.722656 353.824219 373.570312 C 353.605469 373.015625 353.875 372.671875 354.058594 372.144531 C 359.019531 367.34375 370.75 366.691406 377.191406 366.210938 Z M 377.191406 366.210938 " fill-opacity="1" fill-rule="nonzero"/><path fill="none" d="M 388.144531 390.519531 L 388.976562 391.09375 C 389.121094 391.617188 389.144531 391.65625 389.222656 392.285156 C 389.929688 398.230469 389.238281 406.660156 389.214844 412.847656 C 389.179688 421.746094 389.867188 431.238281 388.976562 440.066406 C 388.851562 441.324219 388.675781 441.761719 387.832031 442.699219 L 386.609375 441.855469 C 385.992188 439.566406 385.847656 395.277344 386.410156 392.277344 C 386.609375 391.210938 387.296875 391.050781 388.144531 390.519531 Z M 388.144531 390.519531 " fill-opacity="1" fill-rule="nonzero"/><path fill="none" d="M 405.1875 389.554688 C 406.125 389.75 406.695312 389.863281 407.4375 390.480469 C 408.253906 396.695312 407.882812 403.496094 407.929688 409.785156 C 408.007812 420.054688 408.34375 430.546875 407.632812 440.789062 C 406.597656 440.875 406.339844 440.972656 405.4375 440.492188 C 404.539062 435.421875 405.207031 429.226562 405.203125 424.035156 Z M 405.1875 389.554688 " fill-opacity="1" fill-rule="nonzero"/><path fill="none" d="M 423.914062 384.9375 C 424.742188 385.089844 424.929688 385.097656 425.589844 385.664062 C 426.457031 392.121094 425.890625 399.523438 425.960938 406.070312 C 426.074219 416.347656 426.730469 427.027344 425.941406 437.273438 C 425.285156 436.933594 424.804688 436.558594 424.25 436.066406 C 423.425781 430.21875 423.925781 423.53125 423.855469 417.582031 C 423.726562 406.835938 423.042969 395.625 423.914062 384.9375 Z M 423.914062 384.9375 " fill-opacity="1" fill-rule="nonzero"/><path fill="none" d="M 366.578125 389.261719 C 367.445312 389.378906 368.046875 389.359375 368.683594 390.007812 C 369.46875 396.613281 368.890625 403.832031 368.890625 410.511719 C 368.890625 420.488281 369.289062 430.648438 368.703125 440.605469 C 368.105469 440.300781 367.617188 439.960938 367.074219 439.574219 C 366.34375 433.003906 366.824219 425.976562 366.761719 419.347656 C 366.664062 409.351562 366.210938 399.246094 366.578125 389.261719 Z M 366.578125 389.261719 " fill-opacity="1" fill-rule="nonzero"/><path fill="none" d="M 351.554688 384.226562 C 351.722656 384.371094 352.023438 384.605469 352.148438 384.808594 C 353.207031 386.496094 352.351562 430.722656 351.785156 436.226562 L 350.992188 435.496094 C 350.003906 432.042969 350.054688 387.253906 351.554688 384.226562 Z M 351.554688 384.226562 " fill-opacity="1" fill-rule="nonzero"/><g clip-path="url(#73599ea771)"><path fill="#8a0005" d="M 194.433594 70.15625 C 196.671875 70.039062 198.910156 69.980469 201.148438 69.972656 C 203.386719 69.964844 205.625 70.011719 207.863281 70.113281 C 210.101562 70.21875 212.335938 70.375 214.566406 70.585938 C 216.792969 70.796875 219.019531 71.0625 221.234375 71.378906 C 223.453125 71.699219 225.660156 72.070312 227.859375 72.5 C 230.058594 72.925781 232.246094 73.40625 234.421875 73.9375 C 236.597656 74.46875 238.757812 75.054688 240.90625 75.695312 C 243.050781 76.332031 245.179688 77.023438 247.292969 77.761719 C 253.078125 79.78125 270.273438 85.074219 272.6875 90.589844 C 272.789062 90.820312 272.875 91.054688 272.949219 91.292969 C 273.023438 91.535156 273.085938 91.777344 273.136719 92.023438 C 273.183594 92.269531 273.21875 92.515625 273.242188 92.765625 C 273.261719 93.015625 273.273438 93.265625 273.265625 93.519531 C 273.261719 93.769531 273.242188 94.019531 273.210938 94.265625 C 273.179688 94.515625 273.136719 94.761719 273.078125 95.007812 C 273.019531 95.25 272.945312 95.488281 272.863281 95.726562 C 272.777344 95.960938 272.683594 96.191406 272.574219 96.417969 C 270.421875 100.953125 266.957031 104.589844 262.144531 106.152344 C 257.976562 105.347656 253.914062 104.101562 249.707031 103.449219 C 238.789062 101.761719 227.949219 103.035156 217.113281 104.566406 C 216.71875 112.605469 217.039062 120.742188 217.074219 128.792969 C 217.109375 137.933594 216.890625 147.070312 217.089844 156.207031 C 224.257812 156.878906 235.789062 158.332031 241.167969 163.640625 C 242.40625 164.859375 242.457031 166.367188 242.609375 168.011719 C 243.296875 175.359375 242.714844 183.261719 242.703125 190.652344 L 242.367188 241.363281 C 242.445312 241.480469 242.523438 241.59375 242.597656 241.707031 C 242.714844 241.890625 242.824219 242.074219 242.945312 242.253906 C 245.8125 246.660156 245.316406 251.644531 249.347656 256.792969 C 256.332031 265.710938 265.207031 271.824219 273.75 279.015625 C 291.316406 293.792969 301.226562 316.035156 304.332031 338.421875 C 306.003906 350.464844 305.390625 362.332031 304.980469 374.433594 C 304.621094 385.753906 304.195312 397.074219 303.699219 408.390625 C 302.441406 436.972656 301.351562 465.554688 300.429688 494.148438 L 295.730469 648.214844 L 294.316406 700.472656 C 294.03125 712.484375 294 724.605469 293.253906 736.59375 C 293.03125 740.203125 292.730469 743.328125 290.417969 746.265625 C 281.503906 757.589844 255.726562 760.773438 241.90625 762.644531 C 209.175781 766.527344 135.0625 767.722656 106.011719 753.5625 C 100.644531 750.949219 95.152344 747.058594 93.28125 741.097656 C 91.785156 736.328125 92.027344 724.140625 91.796875 718.796875 L 89.550781 660.789062 C 86.816406 595.71875 84.507812 530.636719 82.628906 465.535156 L 80.285156 398.289062 C 79.78125 383.515625 79.042969 368.660156 79.285156 353.878906 C 79.472656 342.375 81.367188 330.597656 84.496094 319.523438 C 87.996094 307.128906 93.621094 295.167969 102.40625 285.625 C 116.171875 270.667969 136.140625 264.15625 141.894531 241.601562 C 143.242188 236.328125 142.707031 229.800781 142.753906 224.328125 L 142.820312 186.988281 C 142.816406 181.160156 142.382812 175.011719 142.84375 169.21875 C 142.957031 167.816406 143.15625 165.863281 144.015625 164.695312 C 148.003906 159.28125 163.046875 156.964844 169.492188 156.082031 C 169.183594 137.832031 169.597656 119.535156 169.578125 101.277344 C 168.507812 100.59375 167.371094 99.925781 166.378906 99.125 C 163.636719 96.898438 161.621094 93.925781 161.261719 90.351562 C 161.238281 90.117188 161.21875 89.878906 161.207031 89.644531 C 161.191406 89.40625 161.183594 89.167969 161.183594 88.929688 C 161.183594 88.695312 161.191406 88.457031 161.203125 88.21875 C 161.214844 87.980469 161.230469 87.746094 161.253906 87.507812 C 161.28125 87.273438 161.308594 87.035156 161.347656 86.800781 C 161.382812 86.566406 161.425781 86.332031 161.476562 86.101562 C 161.523438 85.867188 161.578125 85.636719 161.640625 85.40625 C 161.703125 85.179688 161.769531 84.949219 161.84375 84.722656 C 161.914062 84.496094 161.996094 84.273438 162.078125 84.050781 C 162.164062 83.832031 162.253906 83.609375 162.351562 83.394531 C 162.449219 83.175781 162.550781 82.960938 162.65625 82.75 C 162.765625 82.539062 162.878906 82.328125 162.996094 82.125 C 163.117188 81.917969 163.242188 81.714844 163.371094 81.515625 C 163.5 81.316406 163.632812 81.121094 163.773438 80.929688 C 163.914062 80.738281 164.058594 80.546875 164.207031 80.363281 C 164.359375 80.179688 164.511719 80 164.671875 79.824219 C 171.445312 72.3125 184.992188 70.757812 194.433594 70.15625 Z M 194.433594 70.15625 " fill-opacity="1" fill-rule="nonzero"/></g><path fill="none" d="M 116.597656 359.816406 C 123.875 359.207031 134.433594 361.15625 142.003906 361.75 C 157.183594 362.902344 172.382812 363.5625 187.605469 363.738281 C 205.007812 363.832031 222.382812 363.214844 239.734375 361.882812 C 248.21875 361.269531 260.351562 359.449219 268.359375 359.683594 C 270.746094 359.753906 272.664062 360.707031 274.238281 362.5 C 276.054688 364.566406 276.667969 366.9375 276.761719 369.628906 C 276.964844 375.542969 276.523438 381.574219 276.335938 387.488281 L 275.460938 417.308594 C 274.871094 447.875 274.058594 478.4375 273.027344 508.992188 L 269.253906 636.269531 L 268.027344 674.488281 C 267.855469 680.199219 268.019531 686.03125 267.625 691.71875 C 267.433594 694.515625 267.066406 695.8125 264.90625 697.664062 C 241.199219 709.324219 170.769531 707.449219 143.984375 703.574219 C 138.933594 702.84375 122.664062 700.324219 120.355469 696.277344 C 119.398438 694.59375 119.410156 691.925781 119.324219 690.019531 C 118.4375 670.582031 118.203125 651.109375 117.507812 631.664062 C 115.105469 563.082031 113.089844 494.488281 111.457031 425.882812 C 111.242188 416.957031 108.707031 370.976562 110.550781 365.957031 C 111.601562 363.085938 113.941406 361.144531 116.597656 359.816406 Z M 116.597656 359.816406 " fill-opacity="1" fill-rule="nonzero"/><path fill="none" d="M 178.152344 104.980469 C 188.3125 106.996094 198.101562 106.636719 208.351562 105.863281 C 208.523438 118.464844 208.535156 131.070312 208.382812 143.671875 C 208.347656 150.578125 208.652344 157.648438 208.164062 164.53125 C 198.074219 166.324219 188.464844 166.128906 178.367188 164.578125 C 177.78125 157.761719 178.070312 150.714844 178.054688 143.875 Z M 178.152344 104.980469 " fill-opacity="1" fill-rule="nonzero"/><path fill="none" d="M 193.820312 78.761719 C 211.304688 76.472656 235.105469 82.335938 251.636719 88.277344 C 255.042969 89.503906 258.949219 90.640625 262.003906 92.601562 C 263.089844 93.300781 263.625 93.847656 263.886719 95.113281 L 263.019531 96.40625 C 262.023438 96.886719 261.695312 96.867188 260.585938 96.789062 C 257.675781 96.585938 254.628906 95.617188 251.742188 95.109375 C 248.027344 94.453125 244.285156 94.207031 240.523438 93.972656 C 235.210938 93.929688 229.914062 94.214844 224.636719 94.824219 C 210.476562 96.515625 184.828125 102.273438 172.820312 93.472656 C 171.523438 92.519531 170.078125 91.449219 170.007812 89.695312 C 169.953125 88.335938 170.652344 86.90625 171.484375 85.875 C 176.074219 80.164062 187.121094 79.316406 193.820312 78.761719 Z M 193.820312 78.761719 " fill-opacity="1" fill-rule="nonzero"/><path fill="none" d="M 166.777344 165.285156 C 167.613281 165.183594 168.117188 165.066406 168.878906 165.476562 C 169.09375 165.890625 169.320312 166.296875 169.542969 166.710938 C 169.792969 167.175781 170.035156 167.644531 170.328125 168.085938 C 172.199219 170.917969 174.558594 172.375 177.855469 172.945312 C 186.390625 174.421875 207.515625 176.03125 214.550781 170.652344 C 216.226562 169.371094 216.292969 166.894531 216.597656 164.972656 C 221.347656 165.5 228.753906 165.828125 232.710938 168.585938 C 233.566406 169.183594 233.707031 169.546875 233.828125 170.546875 C 232.425781 172.976562 229.144531 173.691406 226.667969 174.636719 C 225.238281 175.058594 223.796875 175.421875 222.34375 175.730469 C 205.835938 179.085938 164.882812 179.84375 150.945312 170.648438 C 155.644531 167.355469 161.191406 166.109375 166.777344 165.285156 Z M 166.777344 165.285156 " fill-opacity="1" fill-rule="nonzero"/><path fill="none" d="M 97.9375 413.347656 C 99.261719 413.398438 100.335938 413.347656 101.496094 414.089844 C 102.21875 415.050781 102.214844 415.976562 102.3125 417.132812 C 103.441406 430.882812 103.21875 445.003906 103.726562 458.808594 C 103.917969 463.957031 105.207031 479.398438 104.503906 483.699219 C 104.300781 484.941406 103.648438 485.253906 102.765625 486.046875 C 101.953125 486.125 100.546875 486.210938 99.773438 485.890625 C 98.898438 485.527344 98.488281 485.042969 98.3125 484.113281 C 97.886719 481.839844 98.152344 478.984375 98.113281 476.632812 C 98.03125 471.476562 97.914062 466.320312 97.765625 461.164062 C 97.546875 452.269531 97.273438 443.378906 96.953125 434.488281 C 96.730469 428.363281 96.253906 422.007812 96.636719 415.886719 C 96.703125 414.832031 97.300781 414.132812 97.9375 413.347656 Z M 97.9375 413.347656 " fill-opacity="1" fill-rule="nonzero"/><path fill="none" d="M 101.359375 502.609375 C 102.683594 502.574219 103.617188 502.523438 104.78125 503.277344 C 105.398438 504.25 105.425781 505.148438 105.515625 506.269531 C 106.234375 515.269531 106.058594 524.480469 106.421875 533.519531 C 106.671875 539.753906 107.8125 550.753906 107.183594 556.21875 C 107.074219 557.179688 106.425781 557.851562 105.832031 558.558594 C 104.511719 558.484375 102.609375 558.511719 101.589844 557.570312 C 101.035156 557.054688 101.058594 555.554688 101.019531 554.800781 C 100.472656 544.335938 100.394531 533.804688 99.980469 523.328125 C 99.777344 518.207031 98.863281 510.390625 99.296875 505.515625 C 99.410156 504.207031 100.457031 503.449219 101.359375 502.609375 Z M 101.359375 502.609375 " fill-opacity="1" fill-rule="nonzero"/><path fill="none" d="M 150.667969 239.414062 C 155.457031 239.347656 160.714844 241.425781 165.40625 242.417969 C 169.347656 243.253906 173.4375 243.714844 177.449219 244.074219 C 189.609375 245.167969 202.054688 245.335938 214.191406 243.878906 C 220.195312 243.160156 226.1875 241.679688 232.183594 241.164062 C 233.074219 241.085938 233.242188 241.066406 234.097656 241.394531 C 234.710938 242.410156 234.71875 242.394531 234.542969 243.5625 C 231.707031 244.492188 228.71875 245.167969 225.792969 245.746094 C 205.332031 249.796875 181.648438 249.355469 161.238281 245.074219 C 158.558594 244.511719 153.652344 243.722656 151.523438 241.863281 C 150.574219 241.03125 150.734375 240.609375 150.667969 239.414062 Z M 150.667969 239.414062 " fill-opacity="1" fill-rule="nonzero"/><path fill="none" d="M 104.3125 573.941406 C 105.359375 574.085938 107.101562 574.214844 107.714844 575.195312 C 108.609375 576.628906 109.234375 601.445312 108.746094 603.746094 C 108.480469 605.003906 107.632812 605.3125 106.664062 606 C 105.679688 605.742188 104.96875 605.464844 104.074219 604.945312 C 103.648438 604.359375 103.390625 603.898438 103.25 603.171875 C 102.570312 599.613281 101.617188 579.503906 102.261719 576.292969 C 102.507812 575.070312 103.355469 574.589844 104.3125 573.941406 Z M 104.3125 573.941406 " fill-opacity="1" fill-rule="nonzero"/><path fill="#8a0005" d="M 396.285156 81.734375 C 397.660156 81.71875 399.238281 81.691406 400.347656 82.632812 C 402.445312 84.414062 401.929688 97.375 402.210938 100.492188 C 402.785156 106.875 404.371094 112.441406 407.851562 117.859375 C 419.121094 135.402344 436.550781 126.460938 442.242188 132.058594 C 442.980469 132.785156 443.335938 133.617188 443.253906 134.671875 C 442.847656 139.898438 431.3125 139.433594 427.449219 140.523438 C 423.28125 141.707031 419.023438 143.742188 415.65625 146.5 C 407.839844 152.902344 403.5 164.402344 402.195312 174.144531 C 401.652344 178.195312 401.730469 182.304688 401.253906 186.359375 C 400.984375 188.664062 400.460938 189.667969 398.617188 191.097656 C 397.609375 191.363281 396.472656 191.597656 395.433594 191.324219 C 393.511719 190.820312 392.667969 189.457031 392.148438 187.671875 C 391.308594 184.804688 391.601562 181.199219 391.5 178.210938 C 391.460938 177.171875 391.386719 176.136719 391.28125 175.101562 C 391.179688 174.070312 391.039062 173.042969 390.871094 172.015625 C 390.703125 170.992188 390.5 169.976562 390.265625 168.964844 C 390.035156 167.953125 389.769531 166.949219 389.472656 165.953125 C 389.175781 164.957031 388.847656 163.972656 388.492188 163 C 388.132812 162.023438 387.742188 161.0625 387.324219 160.113281 C 386.90625 159.160156 386.457031 158.226562 385.980469 157.304688 C 385.503906 156.382812 384.996094 155.476562 384.460938 154.585938 C 380.054688 147.351562 372.5 141.152344 363.996094 139.628906 C 361.644531 139.203125 359.050781 139.707031 356.789062 139.054688 C 355.136719 138.574219 353.554688 137.554688 352.753906 135.984375 C 352.289062 135.074219 352.144531 134.007812 352.578125 133.050781 C 354.5 128.84375 364.164062 130.054688 368.0625 129.601562 C 370.808594 129.285156 373.390625 128.554688 375.871094 127.351562 C 388.046875 121.453125 391.375 108.476562 392.3125 95.984375 C 392.597656 92.195312 392.292969 87.449219 393.660156 83.910156 C 394.214844 82.476562 394.960938 82.253906 396.285156 81.734375 Z M 396.285156 81.734375 " fill-opacity="1" fill-rule="nonzero"/><path fill="none" d="M 396.9375 114.898438 C 398.289062 116.285156 399.039062 118.707031 400.078125 120.390625 C 404.402344 127.382812 410 132.300781 417.535156 135.5 L 417.140625 135.746094 C 407.21875 141.945312 399.765625 151.8125 397.140625 163.269531 C 396.242188 163.128906 395.359375 159.609375 395.046875 158.777344 C 391.1875 148.5625 385.894531 141.078125 376.316406 135.773438 C 377.144531 135.503906 377.960938 135.203125 378.769531 134.878906 C 387.078125 131.472656 393.460938 122.878906 396.9375 114.898438 Z M 396.9375 114.898438 " fill-opacity="1" fill-rule="nonzero"/><g clip-path="url(#30b8a42fda)"><path fill="#8a0005" d="M 529.066406 30.371094 C 530.089844 30.417969 530.976562 30.539062 531.929688 30.945312 C 532.800781 31.316406 533.335938 31.882812 533.714844 32.746094 C 535.007812 35.714844 534.480469 40.492188 534.597656 43.753906 C 534.808594 49.511719 535.472656 55.421875 537.816406 60.742188 C 541.96875 70.164062 548.601562 73.539062 558.414062 74.304688 C 561.195312 74.523438 564.328125 74.445312 566.925781 75.542969 C 567.917969 75.964844 569.027344 76.710938 569.300781 77.820312 C 569.511719 78.65625 569.226562 79.785156 568.707031 80.457031 C 566.421875 83.421875 559.695312 82.976562 556.253906 83.792969 C 541.910156 87.183594 536.121094 99.789062 534.859375 113.460938 C 534.582031 116.433594 535.050781 122.710938 533.226562 125.136719 C 532.097656 126.636719 530.714844 126.789062 528.996094 127.140625 C 527.625 126.636719 526.429688 126.183594 525.640625 124.871094 C 522.367188 119.425781 525.144531 104.6875 518.230469 94.042969 C 508.523438 79.101562 493.371094 86.121094 489.742188 81.90625 C 488.886719 80.914062 488.601562 79.65625 488.886719 78.371094 C 489.957031 73.566406 500.085938 74.714844 503.824219 74.050781 C 504.621094 73.910156 505.410156 73.730469 506.191406 73.515625 C 506.972656 73.296875 507.742188 73.042969 508.5 72.753906 C 509.253906 72.460938 509.996094 72.136719 510.71875 71.773438 C 511.445312 71.410156 512.148438 71.011719 512.835938 70.582031 C 521.695312 65.070312 524.144531 54.691406 524.929688 44.90625 C 525.21875 41.296875 525.089844 37.367188 526.011719 33.863281 C 526.523438 31.917969 527.402344 31.308594 529.066406 30.371094 Z M 529.066406 30.371094 " fill-opacity="1" fill-rule="nonzero"/></g><path fill="none" d="M 530.023438 61.703125 C 530.9375 62.734375 531.296875 65.167969 531.824219 66.519531 C 534.125 72.398438 539.109375 75.992188 544.070312 79.5 C 538.738281 82.960938 534.828125 88.003906 532.113281 93.699219 C 531.277344 95.449219 530.613281 97.566406 529.289062 99 C 525.871094 89.957031 522.335938 84.996094 514.230469 79.613281 C 521.535156 74.867188 526.476562 69.769531 530.023438 61.703125 Z M 530.023438 61.703125 " fill-opacity="1" fill-rule="nonzero"/><path fill="#8a0005" d="M 686.078125 344.933594 C 686.796875 345.03125 687.738281 345.132812 688.390625 345.4375 C 691.703125 346.996094 691.410156 360.71875 691.890625 364.15625 C 692.402344 367.8125 693.171875 371.535156 694.589844 374.957031 C 698.203125 383.660156 706.808594 385.929688 715.351562 386.417969 C 718.050781 386.570312 721.257812 386.410156 723.742188 387.574219 C 724.914062 388.125 725.96875 389.160156 726.210938 390.480469 C 727.039062 395.027344 714.746094 396.945312 711.585938 398.085938 C 708.039062 399.371094 703.554688 401.265625 700.769531 403.878906 C 690.34375 413.667969 693.464844 433.625 689.339844 438.726562 C 688.347656 438.859375 687.265625 438.917969 686.273438 438.730469 C 685.351562 438.558594 684.402344 438.035156 683.921875 437.207031 C 682.609375 434.9375 682.035156 426.722656 681.453125 423.710938 C 680.480469 418.675781 679.015625 413.355469 676.632812 408.789062 C 670.6875 397.402344 653.335938 397.953125 649.6875 392.613281 C 649.191406 391.882812 648.992188 390.976562 649.277344 390.109375 C 650.566406 386.191406 658.160156 386.53125 661.488281 386.078125 C 663.902344 385.746094 666.300781 385.21875 668.585938 384.351562 C 680.144531 379.949219 680.699219 366.417969 681.550781 355.816406 C 681.769531 353.097656 681.769531 349.542969 683.011719 347.089844 C 683.710938 345.71875 684.722656 345.390625 686.078125 344.933594 Z M 686.078125 344.933594 " fill-opacity="1" fill-rule="nonzero"/><path fill="none" d="M 686.296875 373.832031 C 687.257812 375.015625 687.738281 377.339844 688.328125 378.792969 C 691.445312 386.425781 697.78125 389.214844 704.871094 392.171875 C 696.003906 396.609375 691.21875 402.710938 687.359375 411.738281 L 687.128906 412.019531 C 686.945312 411.9375 686.726562 411.90625 686.582031 411.769531 C 685.421875 410.65625 683.664062 406.269531 682.675781 404.617188 C 681.589844 402.796875 680.246094 401.074219 678.8125 399.515625 C 676.019531 396.484375 672.863281 394.433594 669.238281 392.535156 C 678.542969 388.058594 682.847656 383.585938 686.296875 373.832031 Z M 686.296875 373.832031 " fill-opacity="1" fill-rule="nonzero"/></svg>