<svg xmlns="http://www.w3.org/2000/svg" xmlns:xlink="http://www.w3.org/1999/xlink" width="1080" zoomAndPan="magnify" viewBox="0 0 810 809.999993" height="1080" preserveAspectRatio="xMidYMid meet" version="1.0"><defs><clipPath id="490adad250"><path d="M 36.796875 43.238281 L 773.292969 43.238281 L 773.292969 766.988281 L 36.796875 766.988281 Z M 36.796875 43.238281 " clip-rule="nonzero"/></clipPath></defs><rect x="-81" width="972" fill="#ffffff" y="-80.999999" height="971.999992" fill-opacity="1"/><rect x="-81" width="972" fill="#ffffff" y="-80.999999" height="971.999992" fill-opacity="1"/><g clip-path="url(#490adad250)"><path fill="#8a0005" d="M 495.546875 340.332031 C 482.652344 377.910156 528.605469 409.847656 559.34375 384.941406 L 564.132812 329.886719 L 545.578125 316.945312 Z M 474.796875 381.671875 C 468.792969 369.804688 466.328125 356.007812 469.15625 341.484375 L 454.144531 341.484375 L 454.144531 472.695312 C 454.144531 505.800781 494.597656 523.359375 518.554688 499.355469 C 525.414062 492.496094 529.664062 483.09375 529.664062 472.695312 L 529.664062 418.855469 C 506.609375 416.878906 485.246094 402.375 474.796875 381.671875 Z M 487.566406 316.234375 L 538.453125 292.449219 L 611.238281 188.386719 L 595.292969 177.230469 C 589.605469 173.25 588.214844 165.410156 592.195312 159.675781 L 663.324219 57.984375 C 674.164062 42.480469 695.578125 38.671875 711.082031 49.5625 L 758.519531 82.746094 C 774.070312 93.589844 777.832031 114.953125 766.992188 130.503906 L 695.863281 232.195312 C 691.878906 237.882812 684.042969 239.273438 678.351562 235.292969 L 662.410156 224.132812 L 589.667969 328.148438 L 584.105469 392.070312 L 584.058594 392.070312 C 583.519531 398.167969 578.417969 402.105469 573.898438 405.597656 C 586.222656 422.617188 593.066406 443.222656 593.066406 464.589844 L 593.066406 754.09375 C 593.066406 761.078125 587.425781 766.71875 580.441406 766.71875 L 49.4375 766.71875 C 42.453125 766.71875 36.8125 761.078125 36.8125 754.09375 L 36.8125 464.589844 C 36.8125 433.632812 51.144531 404.742188 74.878906 385.703125 L 74.878906 336.601562 C 74.878906 325.367188 84.0625 316.21875 95.3125 316.21875 L 180.550781 316.21875 C 191.835938 316.21875 200.984375 325.351562 200.984375 336.601562 L 200.984375 385.703125 C 205.597656 389.414062 209.898438 393.492188 213.800781 397.933594 L 213.800781 389.558594 C 213.800781 358.601562 228.132812 329.710938 251.917969 310.671875 L 251.917969 261.570312 C 251.917969 250.335938 261.050781 241.136719 272.300781 241.136719 L 357.589844 241.136719 C 368.824219 241.136719 377.976562 250.320312 377.976562 261.570312 L 377.976562 310.671875 C 401.710938 329.710938 416.089844 358.601562 416.089844 389.558594 L 416.089844 397.933594 C 419.996094 393.492188 424.292969 389.414062 428.90625 385.703125 L 428.90625 336.601562 C 428.90625 325.367188 438.042969 316.21875 449.339844 316.21875 L 487.566406 316.21875 Z M 564.351562 299.339844 L 574.246094 306.246094 L 641.753906 209.707031 L 631.894531 202.800781 Z M 666.484375 196.273438 L 682.429688 207.429688 L 706.085938 173.660156 L 643.683594 130.027344 L 620.074219 163.800781 Z M 679.332031 79.050781 L 741.738281 122.679688 L 746.714844 115.476562 C 748.960938 112.203125 747.933594 106.199219 744.691406 103.828125 C 744.15625 103.511719 743.664062 103.148438 743.175781 102.753906 L 697.617188 70.863281 C 695.152344 69.347656 693.445312 68.128906 689.824219 68.808594 C 684.847656 69.632812 682.652344 74.339844 679.332031 79.050781 Z M 727.308594 143.320312 L 664.921875 99.6875 L 658.15625 109.359375 L 720.515625 152.992188 Z M 534.738281 558.535156 C 540.015625 553.96875 547.949219 554.554688 552.515625 559.832031 C 557.082031 565.078125 556.5 573.042969 551.21875 577.578125 C 517.132812 607.050781 466.691406 607.050781 432.605469 577.578125 C 427.328125 573.058594 426.789062 565.078125 431.308594 559.832031 C 435.875 554.554688 443.855469 553.96875 449.085938 558.535156 C 473.597656 579.710938 510.195312 579.710938 534.738281 558.535156 Z M 554.980469 422.539062 L 554.980469 472.710938 C 554.980469 507.429688 526.632812 535.730469 491.914062 535.730469 C 457.242188 535.730469 428.890625 507.414062 428.890625 472.710938 L 428.890625 422.488281 C 420.644531 434.722656 416.074219 449.179688 416.074219 464.605469 L 416.074219 741.484375 L 567.796875 741.484375 L 567.796875 464.589844 C 567.796875 449.324219 563.277344 434.847656 554.980469 422.539062 Z M 180.773438 558.535156 C 186.019531 553.96875 193.984375 554.554688 198.550781 559.832031 C 203.070312 565.078125 202.535156 573.042969 197.253906 577.578125 C 163.167969 607.050781 112.726562 607.050781 78.59375 577.578125 C 73.347656 573.058594 72.761719 565.078125 77.34375 559.832031 C 81.863281 554.554688 89.84375 553.96875 95.121094 558.535156 C 119.617188 579.710938 156.214844 579.710938 180.773438 558.535156 Z M 175.699219 341.5 L 100.179688 341.5 L 100.179688 472.710938 C 100.179688 505.816406 140.585938 523.375 164.589844 499.371094 C 171.449219 492.511719 175.699219 483.109375 175.699219 472.710938 Z M 200.96875 422.488281 L 200.96875 472.710938 C 200.96875 507.429688 172.621094 535.730469 137.949219 535.730469 C 103.230469 535.730469 74.878906 507.414062 74.878906 472.710938 L 74.878906 422.488281 C 66.679688 434.722656 62.0625 449.179688 62.0625 464.605469 L 62.0625 741.484375 L 213.785156 741.484375 L 213.785156 464.589844 C 213.785156 449.179688 209.21875 434.722656 200.96875 422.488281 Z M 255.613281 502.53125 C 250.335938 497.964844 249.753906 490.03125 254.320312 484.753906 C 258.886719 479.507812 266.820312 478.921875 272.097656 483.503906 C 296.605469 504.648438 333.238281 504.648438 357.746094 483.503906 C 363.027344 478.9375 370.960938 479.523438 375.527344 484.753906 C 380.09375 490.03125 379.507812 497.964844 374.230469 502.53125 C 340.144531 532.003906 289.75 532.003906 255.613281 502.53125 Z M 377.960938 347.457031 L 377.960938 397.679688 C 377.960938 432.351562 349.65625 460.699219 314.9375 460.699219 C 280.21875 460.699219 251.917969 432.351562 251.917969 397.679688 L 251.917969 347.457031 C 243.667969 359.691406 239.101562 374.148438 239.101562 389.574219 L 239.101562 741.484375 L 390.777344 741.484375 L 390.777344 389.558594 C 390.777344 374.148438 386.191406 359.691406 377.960938 347.457031 Z M 352.691406 266.46875 L 277.171875 266.46875 L 277.171875 397.679688 C 277.171875 430.785156 317.578125 448.296875 341.582031 424.339844 C 348.441406 417.480469 352.691406 408.03125 352.691406 397.679688 Z M 352.691406 266.46875 " fill-opacity="1" fill-rule="nonzero"/></g></svg>