<svg xmlns="http://www.w3.org/2000/svg" xmlns:xlink="http://www.w3.org/1999/xlink" width="1080" zoomAndPan="magnify" viewBox="0 0 810 809.999993" height="1080" preserveAspectRatio="xMaxYMid meet" version="1.0"><path fill="#8a0005" d="M 761.941406 403.402344 C 736.273438 385.640625 696.621094 358.0625 692.5625 354.882812 C 685.046875 348.933594 678.53125 342.039062 673.011719 334.199219 C 676.402344 333.308594 679.679688 332.117188 682.851562 330.628906 C 686.019531 329.136719 689.03125 327.371094 691.878906 325.332031 C 694.726562 323.292969 697.367188 321.011719 699.796875 318.488281 C 702.230469 315.964844 704.414062 313.246094 706.347656 310.324219 C 706.789062 309.703125 707.164062 309.046875 707.472656 308.351562 C 707.785156 307.660156 708.023438 306.941406 708.195312 306.199219 C 708.363281 305.457031 708.457031 304.707031 708.480469 303.945312 C 708.5 303.1875 708.449219 302.433594 708.320312 301.683594 C 708.191406 300.933594 707.992188 300.203125 707.71875 299.492188 C 707.449219 298.78125 707.109375 298.105469 706.703125 297.460938 C 706.300781 296.816406 705.835938 296.21875 705.3125 295.667969 C 704.789062 295.117188 704.214844 294.621094 703.59375 294.183594 C 702.972656 293.742188 702.316406 293.371094 701.621094 293.058594 C 700.925781 292.75 700.207031 292.511719 699.46875 292.34375 C 698.726562 292.175781 697.972656 292.085938 697.214844 292.066406 C 696.453125 292.046875 695.699219 292.101562 694.949219 292.230469 C 694.199219 292.359375 693.472656 292.5625 692.761719 292.835938 C 692.050781 293.109375 691.375 293.449219 690.734375 293.855469 C 690.089844 294.261719 689.492188 294.726562 688.941406 295.253906 C 688.394531 295.777344 687.898438 296.351562 687.460938 296.972656 C 684.933594 300.613281 681.898438 303.761719 678.351562 306.417969 C 681.246094 300.230469 683.546875 293.832031 685.253906 287.222656 C 686.964844 280.609375 688.054688 273.898438 688.523438 267.085938 C 688.566406 266.328125 688.535156 265.574219 688.429688 264.820312 C 688.324219 264.070312 688.144531 263.335938 687.894531 262.617188 C 687.644531 261.902344 687.328125 261.21875 686.941406 260.5625 C 686.554688 259.910156 686.109375 259.296875 685.605469 258.730469 C 685.101562 258.164062 684.542969 257.652344 683.9375 257.195312 C 683.332031 256.738281 682.6875 256.347656 682.003906 256.015625 C 681.320312 255.6875 680.613281 255.425781 679.878906 255.234375 C 679.144531 255.042969 678.398438 254.925781 677.640625 254.882812 C 676.882812 254.839844 676.125 254.871094 675.375 254.976562 C 674.621094 255.078125 673.886719 255.257812 673.171875 255.507812 C 672.453125 255.753906 671.769531 256.074219 671.113281 256.457031 C 670.460938 256.839844 669.847656 257.285156 669.28125 257.789062 C 668.714844 258.296875 668.203125 258.851562 667.746094 259.457031 C 667.285156 260.0625 666.894531 260.703125 666.5625 261.386719 C 666.230469 262.070312 665.96875 262.78125 665.777344 263.515625 C 665.585938 264.25 665.46875 264.996094 665.421875 265.753906 C 665.007812 272.28125 663.816406 278.660156 661.851562 284.898438 C 644.304688 102.699219 483.113281 25.410156 481.382812 24.605469 C 479.546875 23.765625 477.621094 23.433594 475.609375 23.609375 C 475.175781 23.5625 474.742188 23.539062 474.308594 23.542969 C 473.875 23.546875 473.441406 23.574219 473.011719 23.625 C 472.578125 23.675781 472.152344 23.753906 471.730469 23.855469 C 471.304688 23.953125 470.890625 24.078125 470.480469 24.226562 C 470.074219 24.375 469.675781 24.542969 469.285156 24.738281 C 468.894531 24.929688 468.519531 25.144531 468.152344 25.382812 C 467.789062 25.617188 467.4375 25.875 467.101562 26.152344 C 466.765625 26.425781 466.449219 26.722656 466.144531 27.035156 C 465.84375 27.347656 465.5625 27.675781 465.296875 28.019531 C 465.03125 28.363281 464.785156 28.722656 464.5625 29.09375 C 464.339844 29.46875 464.136719 29.851562 463.957031 30.246094 C 463.777344 30.640625 463.621094 31.046875 463.484375 31.460938 C 463.351562 31.875 463.242188 32.292969 463.15625 32.71875 C 463.066406 33.144531 463.007812 33.574219 462.96875 34.007812 C 462.929688 34.441406 462.917969 34.875 462.929688 35.308594 C 462.941406 35.742188 462.980469 36.175781 463.039062 36.605469 C 480.527344 168.941406 460.503906 285.15625 400.03125 402.363281 L 396.617188 408.976562 C 342.554688 513.636719 275.265625 643.894531 356.6875 758.886719 C 357.128906 759.503906 357.625 760.074219 358.175781 760.597656 C 358.726562 761.117188 359.324219 761.582031 359.964844 761.984375 C 360.605469 762.390625 361.28125 762.726562 361.992188 763 C 362.699219 763.269531 363.429688 763.46875 364.175781 763.597656 C 364.925781 763.722656 365.679688 763.777344 366.4375 763.757812 C 367.195312 763.734375 367.945312 763.640625 368.683594 763.472656 C 369.425781 763.304688 370.140625 763.066406 370.835938 762.757812 C 371.527344 762.449219 372.183594 762.074219 372.804688 761.636719 C 373.421875 761.195312 373.992188 760.703125 374.515625 760.152344 C 375.039062 759.601562 375.5 759.003906 375.90625 758.363281 C 376.308594 757.71875 376.648438 757.042969 376.917969 756.335938 C 377.191406 755.628906 377.390625 754.898438 377.519531 754.152344 C 377.648438 753.402344 377.699219 752.648438 377.679688 751.890625 C 377.660156 751.132812 377.566406 750.382812 377.398438 749.644531 C 377.230469 748.902344 376.992188 748.1875 376.683594 747.492188 C 376.375 746.800781 376.003906 746.144531 375.5625 745.523438 C 302.273438 642.015625 363.3125 523.847656 417.171875 419.589844 L 420.585938 412.96875 C 480.035156 297.75 501.746094 183.441406 488.441406 55.019531 C 531.398438 81.371094 641.632812 164.257812 640.335938 320.09375 C 640.328125 321.519531 640.570312 322.898438 641.066406 324.234375 C 643.082031 329.007812 645.386719 333.632812 647.984375 338.113281 C 650.582031 342.597656 653.449219 346.898438 656.589844 351.019531 C 659.726562 355.136719 663.113281 359.046875 666.746094 362.738281 C 670.378906 366.433594 674.226562 369.882812 678.296875 373.089844 C 684.203125 377.714844 742.179688 417.859375 748.890625 422.503906 C 750.699219 423.828125 751.921875 425.566406 752.550781 427.71875 C 752.453125 428.710938 752.183594 429.652344 751.734375 430.542969 C 751.289062 431.433594 750.695312 432.214844 749.957031 432.882812 C 740.234375 438.316406 696.617188 464.886719 701.523438 501.976562 C 701.605469 502.636719 701.75 503.285156 701.953125 503.917969 C 703.101562 507.066406 704.542969 510.066406 706.285156 512.929688 C 708.027344 515.789062 710.03125 518.449219 712.300781 520.914062 C 714.566406 523.378906 717.054688 525.59375 719.761719 527.566406 C 722.46875 529.535156 725.34375 531.222656 728.382812 532.625 C 728.75 533.402344 728.863281 534.214844 728.722656 535.058594 C 728.0625 537.933594 722.816406 543 710.1875 547.8125 C 709.089844 548.234375 708.078125 548.8125 707.15625 549.542969 C 706.234375 550.273438 705.441406 551.125 704.78125 552.09375 C 704.117188 553.066406 703.613281 554.117188 703.269531 555.242188 C 702.925781 556.367188 702.757812 557.515625 702.765625 558.695312 C 702.773438 559.871094 702.957031 561.019531 703.3125 562.140625 C 703.671875 563.261719 704.1875 564.300781 704.863281 565.265625 C 705.539062 566.230469 706.339844 567.070312 707.273438 567.789062 C 708.203125 568.507812 709.21875 569.074219 710.324219 569.480469 C 715.890625 571.546875 724.886719 577.011719 726.515625 582.175781 C 726.761719 582.957031 727.503906 585.3125 724.308594 589.949219 C 723.566406 591.027344 723.371094 591.042969 723.09375 592.070312 C 720.003906 595.828125 716.203125 598.617188 711.695312 600.4375 C 710.570312 600.976562 709.558594 601.679688 708.65625 602.542969 C 706.742188 604.390625 697.597656 614.726562 705.515625 636.964844 C 705.832031 637.847656 706.25 638.683594 706.765625 639.46875 C 706.910156 639.6875 721.132812 661.722656 713.789062 681.53125 C 708.753906 695.117188 694.378906 705.480469 671.066406 712.339844 C 654.027344 713.964844 636.964844 714.289062 619.875 713.3125 C 602.785156 712.335938 585.871094 710.070312 569.125 706.515625 C 568.734375 706.433594 568.34375 706.367188 567.945312 706.324219 C 565.484375 706.042969 507.3125 700.070312 466.46875 744.367188 C 465.957031 744.925781 465.503906 745.527344 465.109375 746.175781 C 464.714844 746.824219 464.386719 747.503906 464.125 748.214844 C 463.867188 748.929688 463.679688 749.660156 463.5625 750.410156 C 463.445312 751.160156 463.402344 751.914062 463.433594 752.671875 C 463.464844 753.429688 463.570312 754.175781 463.75 754.914062 C 463.929688 755.648438 464.175781 756.363281 464.496094 757.050781 C 464.816406 757.738281 465.199219 758.390625 465.644531 759 C 466.089844 759.613281 466.59375 760.179688 467.152344 760.691406 C 467.710938 761.207031 468.3125 761.660156 468.960938 762.054688 C 469.605469 762.453125 470.285156 762.78125 470.996094 763.042969 C 471.710938 763.304688 472.441406 763.496094 473.1875 763.613281 C 473.9375 763.730469 474.691406 763.773438 475.449219 763.746094 C 476.207031 763.714844 476.957031 763.609375 477.691406 763.433594 C 478.429688 763.257812 479.144531 763.007812 479.832031 762.691406 C 480.519531 762.375 481.171875 761.992188 481.785156 761.546875 C 482.398438 761.101562 482.964844 760.601562 483.480469 760.042969 C 514.472656 726.429688 559.777344 728.867188 564.890625 729.269531 C 582.957031 733.121094 601.21875 735.539062 619.664062 736.53125 C 638.113281 737.519531 656.523438 737.066406 674.902344 735.171875 C 675.472656 735.097656 676.03125 734.980469 676.582031 734.820312 C 707.972656 725.796875 727.8125 710.503906 735.550781 689.371094 C 745.648438 661.816406 730.859375 634.578125 726.921875 628.082031 C 725.855469 625.261719 725.382812 622.34375 725.503906 619.332031 C 729.339844 617.460938 732.820312 615.070312 735.949219 612.171875 C 739.078125 609.269531 741.722656 605.976562 743.882812 602.292969 C 745.296875 600.367188 746.472656 598.300781 747.410156 596.097656 C 748.347656 593.894531 749.015625 591.613281 749.421875 589.253906 C 749.824219 586.894531 749.953125 584.519531 749.808594 582.132812 C 749.660156 579.742188 749.238281 577.402344 748.546875 575.113281 C 747.476562 572.039062 746.023438 569.160156 744.179688 566.476562 C 742.335938 563.796875 740.171875 561.402344 737.6875 559.304688 C 739.34375 558.1875 740.890625 556.929688 742.324219 555.53125 C 743.757812 554.136719 745.054688 552.621094 746.214844 550.992188 C 747.375 549.363281 748.378906 547.640625 749.230469 545.828125 C 750.082031 544.015625 750.761719 542.144531 751.273438 540.210938 C 751.71875 538.007812 751.90625 535.789062 751.828125 533.542969 C 751.75 531.300781 751.410156 529.09375 750.8125 526.929688 C 750.214844 524.765625 749.375 522.703125 748.289062 520.734375 C 747.207031 518.769531 745.90625 516.957031 744.394531 515.296875 C 743.140625 513.96875 741.652344 512.992188 739.933594 512.371094 C 738.210938 511.742188 736.570312 510.945312 735.007812 509.984375 C 733.445312 509.023438 731.992188 507.917969 730.652344 506.664062 C 729.3125 505.410156 728.109375 504.035156 727.046875 502.542969 C 725.984375 501.046875 725.078125 499.460938 724.335938 497.785156 C 722.839844 477.667969 751.15625 458.300781 762.398438 452.453125 C 763.460938 451.902344 764.414062 451.203125 765.261719 450.363281 C 767.015625 448.824219 768.574219 447.105469 769.933594 445.210938 C 771.292969 443.316406 772.417969 441.292969 773.3125 439.136719 C 774.207031 436.984375 774.847656 434.757812 775.230469 432.457031 C 775.613281 430.15625 775.730469 427.839844 775.582031 425.511719 C 775.261719 423.300781 774.722656 421.144531 773.960938 419.042969 C 773.199219 416.941406 772.230469 414.941406 771.058594 413.039062 C 769.886719 411.136719 768.53125 409.375 766.996094 407.753906 C 765.460938 406.128906 763.777344 404.679688 761.941406 403.402344 Z M 761.941406 403.402344 " fill-opacity="1" fill-rule="nonzero"/><path fill="#8a0005" d="M 490.960938 439.582031 C 491.320312 438.910156 491.605469 438.210938 491.824219 437.484375 C 492.042969 436.757812 492.191406 436.019531 492.261719 435.261719 C 492.335938 434.507812 492.335938 433.753906 492.257812 432.996094 C 492.183594 432.242188 492.035156 431.503906 491.8125 430.777344 C 491.59375 430.050781 491.304688 429.351562 490.945312 428.683594 C 490.585938 428.015625 490.167969 427.386719 489.683594 426.800781 C 489.203125 426.214844 488.667969 425.683594 488.082031 425.199219 C 487.496094 424.71875 486.867188 424.300781 486.199219 423.941406 C 485.527344 423.585938 484.832031 423.296875 484.105469 423.078125 C 483.378906 422.855469 482.636719 422.710938 481.882812 422.636719 C 481.125 422.558594 480.371094 422.558594 479.617188 422.632812 C 478.863281 422.707031 478.121094 422.855469 477.394531 423.074219 C 476.667969 423.296875 475.96875 423.585938 475.300781 423.941406 C 474.632812 424.296875 474.003906 424.71875 473.417969 425.199219 C 472.828125 425.679688 472.292969 426.210938 471.8125 426.796875 C 471.332031 427.382812 470.910156 428.011719 470.550781 428.679688 L 467.59375 434.234375 C 420.359375 522.589844 361.582031 632.558594 433.058594 730.121094 C 433.503906 730.738281 434.007812 731.300781 434.570312 731.816406 C 435.128906 732.332031 435.730469 732.785156 436.382812 733.179688 C 437.03125 733.578125 437.710938 733.90625 438.425781 734.167969 C 439.140625 734.425781 439.871094 734.617188 440.625 734.734375 C 441.375 734.847656 442.128906 734.890625 442.890625 734.859375 C 443.648438 734.828125 444.398438 734.722656 445.136719 734.539062 C 445.875 734.359375 446.589844 734.109375 447.277344 733.789062 C 447.96875 733.46875 448.617188 733.085938 449.230469 732.636719 C 449.84375 732.1875 450.410156 731.679688 450.921875 731.121094 C 451.4375 730.558594 451.890625 729.957031 452.285156 729.304688 C 452.679688 728.65625 453.007812 727.972656 453.265625 727.257812 C 453.527344 726.542969 453.714844 725.8125 453.828125 725.058594 C 453.945312 724.308594 453.984375 723.554688 453.953125 722.792969 C 453.917969 722.035156 453.8125 721.285156 453.628906 720.546875 C 453.449219 719.808594 453.195312 719.097656 452.875 718.40625 C 452.554688 717.71875 452.167969 717.066406 451.71875 716.457031 C 388.839844 630.628906 441.515625 532.082031 487.992188 445.132812 Z M 490.960938 439.582031 " fill-opacity="1" fill-rule="nonzero"/><path fill="#8a0005" d="M 272.386719 279.152344 C 290.949219 248.628906 260.511719 186.5 254.222656 174.351562 C 253.71875 173.351562 253.082031 172.445312 252.308594 171.632812 C 251.535156 170.820312 250.660156 170.136719 249.6875 169.582031 C 248.710938 169.03125 247.679688 168.628906 246.585938 168.378906 C 245.492188 168.132812 244.386719 168.046875 243.269531 168.128906 C 242.152344 168.191406 241.066406 168.417969 240.015625 168.796875 C 238.964844 169.175781 237.988281 169.699219 237.089844 170.359375 C 236.1875 171.023438 235.402344 171.800781 234.726562 172.691406 C 234.050781 173.585938 233.519531 174.554688 233.125 175.597656 L 211.71875 232.523438 C 211.554688 232.96875 211.414062 233.421875 211.300781 233.882812 C 202.8125 269.132812 219.183594 286.882812 232.078125 293.050781 L 232.078125 410.996094 L 220.511719 410.996094 C 219.945312 411 219.378906 411.027344 218.8125 411.082031 C 218.25 411.140625 217.6875 411.222656 217.128906 411.335938 C 216.574219 411.445312 216.023438 411.582031 215.480469 411.75 C 214.9375 411.914062 214.402344 412.105469 213.875 412.324219 C 213.351562 412.542969 212.839844 412.785156 212.339844 413.050781 C 211.835938 413.320312 211.351562 413.613281 210.878906 413.925781 C 210.40625 414.242188 209.949219 414.582031 209.511719 414.941406 C 209.074219 415.300781 208.652344 415.683594 208.25 416.085938 C 207.847656 416.488281 207.46875 416.90625 207.109375 417.347656 C 206.746094 417.785156 206.410156 418.242188 206.09375 418.714844 C 205.777344 419.183594 205.484375 419.671875 205.21875 420.171875 C 204.949219 420.671875 204.707031 421.1875 204.488281 421.710938 C 204.273438 422.234375 204.082031 422.769531 203.914062 423.3125 C 203.75 423.855469 203.609375 424.40625 203.5 424.964844 C 203.390625 425.519531 203.304688 426.082031 203.25 426.648438 C 203.191406 427.210938 203.164062 427.78125 203.164062 428.347656 L 203.164062 464.113281 C 202.324219 464.40625 201.515625 464.765625 200.730469 465.183594 C 199.949219 465.605469 199.203125 466.082031 198.492188 466.617188 C 197.78125 467.152344 197.117188 467.738281 196.5 468.375 C 195.878906 469.011719 195.3125 469.695312 194.796875 470.417969 C 194.28125 471.144531 193.824219 471.902344 193.429688 472.699219 C 193.03125 473.492188 192.695312 474.3125 192.425781 475.160156 C 192.152344 476.007812 191.949219 476.867188 191.808594 477.746094 C 191.671875 478.625 191.601562 479.507812 191.597656 480.394531 L 191.597656 729.070312 C 191.597656 730.207031 191.65625 731.339844 191.769531 732.472656 C 191.878906 733.601562 192.046875 734.726562 192.269531 735.839844 C 192.492188 736.953125 192.769531 738.054688 193.101562 739.140625 C 193.429688 740.226562 193.8125 741.296875 194.25 742.34375 C 194.683594 743.394531 195.167969 744.421875 195.707031 745.421875 C 196.242188 746.421875 196.824219 747.398438 197.457031 748.339844 C 198.089844 749.285156 198.765625 750.195312 199.484375 751.074219 C 200.207031 751.953125 200.96875 752.792969 201.773438 753.597656 C 202.574219 754.398438 203.414062 755.164062 204.292969 755.882812 C 205.171875 756.605469 206.082031 757.28125 207.027344 757.910156 C 207.972656 758.542969 208.945312 759.125 209.945312 759.664062 C 210.949219 760.199219 211.972656 760.683594 213.023438 761.121094 C 214.074219 761.554688 215.140625 761.9375 216.226562 762.269531 C 217.316406 762.597656 218.414062 762.875 219.53125 763.097656 C 220.644531 763.320312 221.765625 763.488281 222.898438 763.601562 C 224.027344 763.714844 225.160156 763.769531 226.296875 763.769531 L 260.996094 763.769531 C 262.132812 763.769531 263.265625 763.714844 264.394531 763.601562 C 265.527344 763.488281 266.648438 763.320312 267.761719 763.097656 C 268.875 762.875 269.976562 762.597656 271.0625 762.269531 C 272.152344 761.9375 273.21875 761.554688 274.269531 761.121094 C 275.316406 760.683594 276.34375 760.199219 277.34375 759.664062 C 278.347656 759.125 279.320312 758.542969 280.265625 757.910156 C 281.207031 757.28125 282.121094 756.605469 283 755.882812 C 283.875 755.164062 284.71875 754.398438 285.519531 753.597656 C 286.324219 752.792969 287.085938 751.953125 287.808594 751.074219 C 288.527344 750.195312 289.203125 749.285156 289.835938 748.339844 C 290.464844 747.398438 291.050781 746.421875 291.585938 745.421875 C 292.121094 744.421875 292.609375 743.394531 293.042969 742.34375 C 293.480469 741.296875 293.863281 740.226562 294.191406 739.140625 C 294.523438 738.054688 294.800781 736.953125 295.023438 735.839844 C 295.246094 734.726562 295.410156 733.601562 295.523438 732.472656 C 295.636719 731.339844 295.695312 730.207031 295.695312 729.070312 L 295.695312 480.394531 C 295.691406 479.507812 295.621094 478.625 295.484375 477.746094 C 295.34375 476.867188 295.140625 476.007812 294.867188 475.160156 C 294.597656 474.3125 294.261719 473.492188 293.863281 472.699219 C 293.464844 471.902344 293.011719 471.144531 292.496094 470.417969 C 291.980469 469.695312 291.414062 469.011719 290.792969 468.375 C 290.175781 467.738281 289.507812 467.152344 288.800781 466.617188 C 288.089844 466.082031 287.34375 465.605469 286.5625 465.183594 C 285.777344 464.765625 284.964844 464.40625 284.128906 464.113281 L 284.128906 428.347656 C 284.128906 427.78125 284.097656 427.210938 284.042969 426.648438 C 283.988281 426.082031 283.902344 425.519531 283.792969 424.964844 C 283.679688 424.40625 283.542969 423.855469 283.375 423.3125 C 283.210938 422.769531 283.019531 422.234375 282.800781 421.710938 C 282.585938 421.1875 282.34375 420.671875 282.074219 420.171875 C 281.804688 419.671875 281.515625 419.183594 281.199219 418.714844 C 280.882812 418.242188 280.542969 417.785156 280.183594 417.347656 C 279.824219 416.90625 279.441406 416.488281 279.042969 416.085938 C 278.640625 415.683594 278.21875 415.300781 277.78125 414.941406 C 277.339844 414.582031 276.886719 414.242188 276.414062 413.925781 C 275.941406 413.613281 275.453125 413.320312 274.953125 413.050781 C 274.453125 412.785156 273.941406 412.542969 273.414062 412.324219 C 272.890625 412.105469 272.355469 411.914062 271.8125 411.75 C 271.269531 411.582031 270.71875 411.445312 270.164062 411.335938 C 269.605469 411.222656 269.042969 411.140625 268.480469 411.082031 C 267.914062 411.027344 267.347656 411 266.777344 410.996094 L 255.210938 410.996094 L 255.210938 292.851562 C 256.984375 292.25 258.695312 291.503906 260.339844 290.605469 C 261.980469 289.707031 263.535156 288.675781 265 287.507812 C 266.464844 286.339844 267.816406 285.054688 269.054688 283.652344 C 270.296875 282.25 271.40625 280.75 272.386719 279.152344 Z M 272.5625 491.960938 L 272.5625 515.09375 L 214.730469 515.09375 L 214.730469 491.960938 Z M 260.996094 434.128906 L 260.996094 463.046875 L 226.296875 463.046875 L 226.296875 434.128906 Z M 260.996094 434.128906 " fill-opacity="1" fill-rule="nonzero"/><path fill="#8a0005" d="M 416.542969 89.898438 C 416.207031 88.886719 415.738281 87.945312 415.140625 87.066406 C 414.542969 86.183594 413.835938 85.402344 413.023438 84.71875 C 412.210938 84.03125 411.320312 83.472656 410.351562 83.03125 C 409.382812 82.59375 408.371094 82.292969 407.320312 82.132812 L 381.453125 78.183594 L 369.78125 53.3125 C 369.3125 52.316406 368.71875 51.40625 367.992188 50.582031 C 367.265625 49.757812 366.441406 49.050781 365.511719 48.460938 C 364.585938 47.875 363.59375 47.425781 362.539062 47.117188 C 361.484375 46.8125 360.410156 46.660156 359.308594 46.660156 C 358.210938 46.660156 357.136719 46.8125 356.078125 47.117188 C 355.023438 47.425781 354.035156 47.875 353.105469 48.460938 C 352.179688 49.050781 351.351562 49.757812 350.628906 50.582031 C 349.902344 51.40625 349.304688 52.316406 348.839844 53.3125 L 337.164062 78.183594 L 311.300781 82.132812 C 310.25 82.292969 309.238281 82.589844 308.269531 83.03125 C 307.300781 83.46875 306.410156 84.03125 305.597656 84.714844 C 304.785156 85.402344 304.078125 86.183594 303.480469 87.0625 C 302.882812 87.941406 302.414062 88.886719 302.078125 89.894531 C 301.742188 90.902344 301.546875 91.9375 301.492188 93 C 301.441406 94.058594 301.535156 95.109375 301.769531 96.144531 C 302.007812 97.183594 302.378906 98.167969 302.890625 99.101562 C 303.398438 100.035156 304.023438 100.882812 304.765625 101.644531 L 323.820312 121.171875 L 319.300781 148.890625 C 319.128906 149.964844 319.105469 151.039062 319.230469 152.117188 C 319.359375 153.191406 319.632812 154.230469 320.054688 155.234375 C 320.472656 156.234375 321.023438 157.15625 321.703125 158.003906 C 322.386719 158.847656 323.167969 159.582031 324.054688 160.207031 C 324.945312 160.832031 325.898438 161.324219 326.925781 161.679688 C 327.949219 162.035156 329.003906 162.242188 330.089844 162.300781 C 331.171875 162.359375 332.242188 162.269531 333.300781 162.027344 C 334.359375 161.785156 335.363281 161.402344 336.3125 160.875 L 359.308594 148.164062 L 382.308594 160.875 C 383.257812 161.402344 384.261719 161.785156 385.320312 162.027344 C 386.375 162.269531 387.449219 162.359375 388.53125 162.300781 C 389.613281 162.242188 390.667969 162.035156 391.695312 161.679688 C 392.71875 161.324219 393.675781 160.832031 394.5625 160.207031 C 395.449219 159.582031 396.234375 158.847656 396.914062 158.003906 C 397.59375 157.15625 398.144531 156.234375 398.566406 155.234375 C 398.984375 154.230469 399.261719 153.191406 399.386719 152.113281 C 399.515625 151.039062 399.492188 149.964844 399.316406 148.890625 L 394.800781 121.171875 L 413.855469 101.644531 C 414.597656 100.882812 415.222656 100.035156 415.730469 99.101562 C 416.242188 98.167969 416.613281 97.183594 416.851562 96.148438 C 417.089844 95.113281 417.179688 94.0625 417.128906 93 C 417.074219 91.9375 416.882812 90.90625 416.542969 89.898438 Z M 374.164062 109.199219 C 373.53125 109.847656 372.984375 110.558594 372.515625 111.335938 C 372.050781 112.113281 371.683594 112.933594 371.410156 113.796875 C 371.140625 114.660156 370.972656 115.542969 370.90625 116.445312 C 370.839844 117.347656 370.882812 118.246094 371.027344 119.140625 L 372.65625 129.109375 L 364.90625 124.828125 C 364.050781 124.351562 363.148438 123.992188 362.199219 123.75 C 361.253906 123.503906 360.289062 123.382812 359.308594 123.382812 C 358.332031 123.382812 357.367188 123.503906 356.417969 123.75 C 355.472656 123.992188 354.570312 124.351562 353.714844 124.828125 L 345.964844 129.109375 L 347.589844 119.140625 C 347.738281 118.246094 347.777344 117.347656 347.714844 116.445312 C 347.648438 115.542969 347.480469 114.660156 347.207031 113.796875 C 346.9375 112.933594 346.566406 112.113281 346.101562 111.335938 C 345.636719 110.558594 345.089844 109.847656 344.457031 109.199219 L 337.042969 101.597656 L 346.761719 100.113281 C 347.699219 99.96875 348.605469 99.714844 349.484375 99.347656 C 350.359375 98.980469 351.179688 98.515625 351.9375 97.945312 C 352.699219 97.378906 353.378906 96.726562 353.980469 95.988281 C 354.582031 95.253906 355.082031 94.457031 355.484375 93.59375 L 359.308594 85.453125 L 363.132812 93.59375 C 363.535156 94.457031 364.039062 95.253906 364.640625 95.988281 C 365.238281 96.726562 365.917969 97.378906 366.679688 97.945312 C 367.441406 98.515625 368.261719 98.980469 369.136719 99.347656 C 370.011719 99.714844 370.921875 99.96875 371.859375 100.113281 L 381.578125 101.597656 Z M 374.164062 109.199219 " fill-opacity="1" fill-rule="nonzero"/><path fill="#8a0005" d="M 36.046875 120.238281 C 37.679688 133.214844 40.484375 145.933594 44.460938 158.394531 C 48.4375 170.855469 53.519531 182.847656 59.703125 194.371094 C 71.675781 218.542969 86.136719 241.929688 98.316406 263.78125 C 98.398438 263.929688 98.726562 264.667969 99.066406 265.332031 L 99.066406 734.855469 C 99.066406 735.800781 99.113281 736.746094 99.207031 737.691406 C 99.296875 738.632812 99.4375 739.566406 99.621094 740.496094 C 99.804688 741.425781 100.035156 742.34375 100.3125 743.25 C 100.585938 744.15625 100.90625 745.046875 101.265625 745.921875 C 101.628906 746.796875 102.035156 747.652344 102.480469 748.484375 C 102.925781 749.320312 103.414062 750.132812 103.9375 750.921875 C 104.464844 751.707031 105.027344 752.46875 105.628906 753.199219 C 106.230469 753.929688 106.867188 754.632812 107.535156 755.300781 C 108.207031 755.972656 108.90625 756.605469 109.636719 757.207031 C 110.371094 757.808594 111.128906 758.371094 111.917969 758.898438 C 112.703125 759.425781 113.515625 759.910156 114.351562 760.355469 C 115.1875 760.804688 116.042969 761.207031 116.917969 761.570312 C 117.792969 761.933594 118.683594 762.25 119.589844 762.527344 C 120.496094 762.800781 121.410156 763.03125 122.339844 763.214844 C 123.269531 763.398438 124.207031 763.539062 125.148438 763.632812 C 126.089844 763.726562 127.035156 763.769531 127.980469 763.769531 L 139.546875 763.769531 C 140.496094 763.769531 141.441406 763.726562 142.382812 763.632812 C 143.324219 763.539062 144.261719 763.398438 145.191406 763.214844 C 146.117188 763.03125 147.035156 762.800781 147.941406 762.527344 C 148.847656 762.25 149.738281 761.933594 150.613281 761.570312 C 151.488281 761.207031 152.34375 760.804688 153.179688 760.355469 C 154.015625 759.910156 154.824219 759.425781 155.613281 758.898438 C 156.402344 758.371094 157.160156 757.808594 157.890625 757.207031 C 158.625 756.605469 159.324219 755.972656 159.996094 755.300781 C 160.664062 754.632812 161.300781 753.929688 161.902344 753.199219 C 162.5 752.46875 163.066406 751.707031 163.589844 750.921875 C 164.117188 750.132812 164.605469 749.320312 165.050781 748.484375 C 165.496094 747.652344 165.902344 746.796875 166.261719 745.921875 C 166.625 745.046875 166.945312 744.15625 167.21875 743.25 C 167.496094 742.34375 167.722656 741.425781 167.910156 740.496094 C 168.09375 739.566406 168.234375 738.632812 168.324219 737.691406 C 168.417969 736.746094 168.464844 735.800781 168.464844 734.855469 L 168.464844 265.363281 L 168.609375 265.152344 C 169.59375 263.75 170.636719 262.246094 171.792969 260.5625 C 172.15625 260.03125 172.550781 259.4375 172.929688 258.878906 C 173.859375 257.511719 174.789062 256.136719 175.800781 254.609375 C 176.410156 253.691406 177.0625 252.683594 177.695312 251.710938 C 178.558594 250.390625 179.402344 249.105469 180.304688 247.691406 C 181.125 246.414062 181.976562 245.035156 182.824219 243.683594 C 183.617188 242.417969 184.390625 241.199219 185.203125 239.871094 C 186.191406 238.257812 187.207031 236.542969 188.21875 234.84375 C 188.9375 233.640625 189.640625 232.484375 190.367188 231.234375 C 191.476562 229.335938 192.597656 227.335938 193.722656 225.339844 C 194.382812 224.171875 195.03125 223.050781 195.695312 221.851562 C 196.886719 219.6875 198.078125 217.433594 199.269531 215.179688 C 199.867188 214.050781 200.460938 212.96875 201.054688 211.820312 C 202.28125 209.445312 203.488281 206.988281 204.695312 204.53125 C 205.246094 203.410156 205.804688 202.328125 206.347656 201.191406 C 207.566406 198.648438 208.742188 196.035156 209.921875 193.417969 C 210.425781 192.296875 210.949219 191.207031 211.445312 190.070312 C 212.613281 187.394531 213.726562 184.660156 214.835938 181.921875 C 215.296875 180.785156 215.785156 179.671875 216.234375 178.527344 C 217.320312 175.757812 218.328125 172.941406 219.332031 170.125 C 219.75 168.957031 220.203125 167.816406 220.601562 166.644531 C 221.574219 163.808594 222.441406 160.9375 223.316406 158.0625 C 223.679688 156.871094 224.085938 155.699219 224.429688 154.503906 C 225.265625 151.59375 225.984375 148.660156 226.703125 145.722656 C 226.992188 144.542969 227.335938 143.371094 227.605469 142.1875 C 228.277344 139.222656 228.808594 136.246094 229.339844 133.269531 C 229.550781 132.101562 229.828125 130.9375 230.015625 129.769531 C 230.519531 126.597656 230.859375 123.429688 231.1875 120.261719 C 231.285156 119.289062 231.460938 118.3125 231.542969 117.339844 C 231.890625 113.199219 232.078125 109.070312 232.078125 104.960938 C 232.121094 103.226562 232.097656 101.492188 232.019531 99.757812 C 231.9375 98.027344 231.796875 96.296875 231.59375 94.574219 C 231.390625 92.851562 231.128906 91.136719 230.808594 89.429688 C 230.488281 87.726562 230.105469 86.035156 229.667969 84.355469 C 229.226562 82.675781 228.730469 81.015625 228.175781 79.371094 C 227.621094 77.726562 227.007812 76.101562 226.339844 74.503906 C 225.671875 72.902344 224.945312 71.324219 224.167969 69.773438 C 223.390625 68.222656 222.558594 66.699219 221.675781 65.207031 C 220.789062 63.714844 219.855469 62.253906 218.867188 60.828125 C 217.878906 59.398438 216.84375 58.007812 215.761719 56.652344 C 214.679688 55.296875 213.550781 53.980469 212.375 52.703125 C 211.199219 51.429688 209.980469 50.195312 208.71875 49.003906 C 207.457031 47.8125 206.15625 46.664062 204.8125 45.5625 C 203.472656 44.460938 202.09375 43.410156 200.679688 42.40625 C 199.265625 41.402344 197.816406 40.445312 196.335938 39.542969 C 194.851562 38.640625 193.34375 37.789062 191.800781 36.988281 C 183.171875 32.433594 174.113281 29.015625 164.625 26.734375 C 155.140625 24.457031 145.515625 23.386719 135.761719 23.527344 C 129.003906 23.445312 122.28125 23.898438 115.597656 24.894531 C 108.914062 25.886719 102.347656 27.402344 95.90625 29.441406 C 89.464844 31.484375 83.226562 34.023438 77.1875 37.0625 C 71.152344 40.097656 65.394531 43.597656 59.917969 47.554688 C 37.414062 64.703125 33.742188 94.179688 36.046875 120.238281 Z M 145.332031 734.855469 C 145.332031 735.234375 145.292969 735.609375 145.21875 735.984375 C 145.144531 736.355469 145.035156 736.714844 144.890625 737.066406 C 144.742188 737.417969 144.566406 737.75 144.355469 738.066406 C 144.144531 738.382812 143.902344 738.675781 143.636719 738.941406 C 143.367188 739.210938 143.074219 739.449219 142.757812 739.660156 C 142.445312 739.871094 142.109375 740.050781 141.761719 740.195312 C 141.410156 740.34375 141.046875 740.453125 140.675781 740.527344 C 140.304688 740.601562 139.929688 740.636719 139.546875 740.636719 L 127.980469 740.636719 C 127.601562 740.636719 127.226562 740.601562 126.855469 740.527344 C 126.480469 740.453125 126.121094 740.34375 125.769531 740.195312 C 125.417969 740.050781 125.085938 739.871094 124.769531 739.660156 C 124.457031 739.449219 124.164062 739.210938 123.894531 738.941406 C 123.625 738.675781 123.386719 738.382812 123.175781 738.066406 C 122.964844 737.75 122.785156 737.417969 122.640625 737.066406 C 122.496094 736.71875 122.386719 736.355469 122.3125 735.984375 C 122.238281 735.609375 122.199219 735.234375 122.199219 734.855469 L 122.199219 312.683594 L 145.332031 312.683594 Z M 145.332031 289.550781 L 122.199219 289.550781 L 122.199219 266.417969 L 145.332031 266.417969 Z M 122.199219 220.152344 C 122.199219 219.394531 122.273438 218.640625 122.421875 217.898438 C 122.570312 217.152344 122.789062 216.429688 123.078125 215.726562 C 123.371094 215.027344 123.726562 214.359375 124.148438 213.726562 C 124.570312 213.097656 125.050781 212.511719 125.585938 211.976562 C 126.125 211.4375 126.707031 210.957031 127.339844 210.535156 C 127.96875 210.113281 128.636719 209.757812 129.339844 209.46875 C 130.039062 209.175781 130.761719 208.957031 131.507812 208.808594 C 132.253906 208.660156 133.003906 208.585938 133.765625 208.585938 C 134.523438 208.585938 135.277344 208.660156 136.019531 208.808594 C 136.765625 208.957031 137.488281 209.175781 138.191406 209.46875 C 138.894531 209.757812 139.558594 210.113281 140.191406 210.535156 C 140.820312 210.957031 141.40625 211.4375 141.945312 211.976562 C 142.480469 212.511719 142.960938 213.097656 143.382812 213.726562 C 143.804688 214.359375 144.160156 215.027344 144.449219 215.726562 C 144.742188 216.429688 144.960938 217.152344 145.109375 217.898438 C 145.257812 218.640625 145.332031 219.394531 145.332031 220.152344 L 145.332031 243.285156 C 137.890625 243.285156 129.640625 243.285156 122.199219 243.285156 Z M 122.199219 220.152344 " fill-opacity="1" fill-rule="nonzero"/></svg>